ISO-10303-21;
HEADER;
/* Generated by software containing ST-Developer
 * from STEP Tools, Inc. (www.steptools.com) 
 */

FILE_DESCRIPTION(
/* description */ (''),
/* implementation_level */ '2;1');

FILE_NAME(
/* name */ '1007mm.step',
/* time_stamp */ '2026-04-08T08:48:06-04:00',
/* author */ (''),
/* organization */ (''),
/* preprocessor_version */ 'ST-DEVELOPER v20.1',
/* originating_system */ 'Autodesk Translation Framework v14.24.0.0',
/* authorisation */ '');

FILE_SCHEMA (('AUTOMOTIVE_DESIGN { 1 0 10303 214 3 1 1 }'));
ENDSEC;

DATA;
#10=MECHANICAL_DESIGN_GEOMETRIC_PRESENTATION_REPRESENTATION('',(#13),#1550);
#11=SHAPE_REPRESENTATION_RELATIONSHIP('SRR','None',#1556,#12);
#12=ADVANCED_BREP_SHAPE_REPRESENTATION('',(#14),#1549);
#13=STYLED_ITEM('',(#1565),#14);
#14=MANIFOLD_SOLID_BREP('Body28',#788);
#15=FACE_BOUND('',#132,.T.);
#16=FACE_BOUND('',#133,.T.);
#17=FACE_BOUND('',#134,.T.);
#18=FACE_BOUND('',#135,.T.);
#19=FACE_BOUND('',#151,.T.);
#20=FACE_BOUND('',#152,.T.);
#21=FACE_BOUND('',#159,.T.);
#22=FACE_BOUND('',#160,.T.);
#23=B_SPLINE_CURVE_WITH_KNOTS('',3,(#1166,#1167,#1168,#1169,#1170,#1171,
#1172,#1173,#1174,#1175,#1176,#1177,#1178,#1179,#1180,#1181,#1182,#1183,
#1184,#1185,#1186,#1187,#1188,#1189,#1190,#1191,#1192,#1193,#1194,#1195,
#1196,#1197,#1198,#1199,#1200,#1201,#1202,#1203,#1204,#1205,#1206,#1207,
#1208,#1209,#1210,#1211,#1212,#1213,#1214,#1215,#1216,#1217,#1218,#1219,
#1220,#1221,#1222,#1223,#1224,#1225,#1226,#1227,#1228,#1229,#1230,#1231,
#1232,#1233,#1234,#1235,#1236,#1237,#1238,#1239,#1240,#1241,#1242,#1243,
#1244),.UNSPECIFIED.,.F.,.F.,(4,3,3,3,3,3,3,3,3,3,3,3,3,3,3,3,3,3,3,3,3,
3,3,3,3,3,4),(0.,0.0298872112034643,0.0601735971235063,0.0905783832078219,
0.117572321945348,0.148072476506688,0.178623612839136,0.189906879866894,
0.220208478639373,0.234192628078604,0.264635591732339,0.285216808800137,
0.315602360893448,0.346191790328995,0.350599841096761,0.381200758090411,
0.411976322961018,0.442370529859151,0.467601161943327,0.476524826573123,
0.506732455802774,0.537450094971318,0.567759168158746,0.598570326395437,
0.629350384652607,0.659564688692273,0.667679379449797),.UNSPECIFIED.);
#24=B_SPLINE_CURVE_WITH_KNOTS('',3,(#1245,#1246,#1247,#1248),
 .UNSPECIFIED.,.F.,.F.,(4,4),(-0.91515417201632,-0.486545049661219),
 .UNSPECIFIED.);
#25=B_SPLINE_CURVE_WITH_KNOTS('',3,(#1249,#1250,#1251,#1252),
 .UNSPECIFIED.,.F.,.F.,(4,4),(0.486545049661219,0.883268325021311),
 .UNSPECIFIED.);
#26=B_SPLINE_CURVE_WITH_KNOTS('',3,(#1315,#1316,#1317,#1318,#1319,#1320,
#1321,#1322,#1323,#1324,#1325,#1326,#1327,#1328,#1329,#1330,#1331,#1332,
#1333,#1334,#1335,#1336,#1337,#1338,#1339,#1340,#1341,#1342,#1343,#1344,
#1345,#1346,#1347,#1348,#1349,#1350,#1351,#1352,#1353,#1354,#1355,#1356,
#1357,#1358,#1359,#1360,#1361,#1362,#1363,#1364,#1365,#1366,#1367,#1368,
#1369,#1370,#1371,#1372,#1373,#1374,#1375,#1376,#1377,#1378,#1379,#1380,
#1381,#1382,#1383,#1384,#1385,#1386,#1387,#1388,#1389,#1390,#1391,#1392,
#1393),.UNSPECIFIED.,.F.,.F.,(4,3,3,3,3,3,3,3,3,3,3,3,3,3,3,3,3,3,3,3,3,
3,3,3,3,3,4),(0.,0.0303376483824994,0.0611097101300504,0.0919907416889331,
0.119380265121682,0.150120074621753,0.180751823220523,0.191369570431865,
0.221838485937892,0.238264565247951,0.268734342768808,0.287096307620246,
0.317812620951292,0.348507682159058,0.355984690770613,0.3865765211932,0.417160398672026,
0.447128365779452,0.472525699535271,0.478069844950687,0.50820267104777,
0.539271228575803,0.570339786103835,0.600687350169857,0.630986377243422,
0.660758381862678,0.667820395984993),.UNSPECIFIED.);
#27=B_SPLINE_CURVE_WITH_KNOTS('',3,(#1394,#1395,#1396,#1397),
 .UNSPECIFIED.,.F.,.F.,(4,4),(-0.883271152181714,-0.486545049661158),
 .UNSPECIFIED.);
#28=B_SPLINE_CURVE_WITH_KNOTS('',3,(#1398,#1399,#1400,#1401),
 .UNSPECIFIED.,.F.,.F.,(4,4),(0.486545049661158,0.915158540202897),
 .UNSPECIFIED.);
#29=B_SPLINE_SURFACE_WITH_KNOTS('',3,3,((#1136,#1137,#1138,#1139),(#1140,
#1141,#1142,#1143),(#1144,#1145,#1146,#1147),(#1148,#1149,#1150,#1151),
(#1152,#1153,#1154,#1155),(#1156,#1157,#1158,#1159),(#1160,#1161,#1162,
#1163)),.UNSPECIFIED.,.F.,.F.,.F.,(4,1,1,1,4),(4,4),(0.,0.285714285714286,
0.571428571428571,0.714285714285714,1.),(0.486545049661219,0.91515417201632),
 .UNSPECIFIED.);
#30=B_SPLINE_SURFACE_WITH_KNOTS('',3,3,((#1285,#1286,#1287,#1288),(#1289,
#1290,#1291,#1292),(#1293,#1294,#1295,#1296),(#1297,#1298,#1299,#1300),
(#1301,#1302,#1303,#1304),(#1305,#1306,#1307,#1308),(#1309,#1310,#1311,
#1312)),.UNSPECIFIED.,.F.,.F.,.F.,(4,1,1,1,4),(4,4),(0.,0.285714285714286,
0.571428571428571,0.714285714285714,1.),(0.486545049661158,0.915158540202897),
 .UNSPECIFIED.);
#31=PLANE('',#797);
#32=PLANE('',#804);
#33=PLANE('',#809);
#34=PLANE('',#810);
#35=PLANE('',#817);
#36=PLANE('',#822);
#37=PLANE('',#826);
#38=PLANE('',#838);
#39=PLANE('',#842);
#40=PLANE('',#845);
#41=PLANE('',#846);
#42=PLANE('',#849);
#43=PLANE('',#858);
#44=PLANE('',#859);
#45=PLANE('',#860);
#46=PLANE('',#863);
#47=PLANE('',#864);
#48=PLANE('',#865);
#49=PLANE('',#866);
#50=PLANE('',#867);
#51=PLANE('',#868);
#52=CIRCLE('',#796,6.35000000000012);
#53=CIRCLE('',#799,3.00000000000003);
#54=CIRCLE('',#800,3.);
#55=CIRCLE('',#807,3.81000000000002);
#56=CIRCLE('',#808,3.81000000000002);
#57=CIRCLE('',#812,3.);
#58=CIRCLE('',#813,2.99999999999998);
#59=CIRCLE('',#825,6.35000000000012);
#60=CIRCLE('',#827,3.81000000000001);
#61=CIRCLE('',#828,6.34999999999997);
#62=CIRCLE('',#829,3.81);
#63=CIRCLE('',#830,6.35000000000001);
#64=CIRCLE('',#831,3.81000000000002);
#65=CIRCLE('',#832,1.58749999999998);
#66=CIRCLE('',#833,1.58749999999998);
#67=CIRCLE('',#834,1.58749999999998);
#68=CIRCLE('',#835,1.58749999999998);
#69=CIRCLE('',#841,3.81000000000002);
#70=CIRCLE('',#844,6.35000000000001);
#71=CIRCLE('',#851,1.58749999999998);
#72=CIRCLE('',#853,1.58749999999998);
#73=FACE_OUTER_BOUND('',#114,.T.);
#74=FACE_OUTER_BOUND('',#115,.T.);
#75=FACE_OUTER_BOUND('',#116,.T.);
#76=FACE_OUTER_BOUND('',#117,.T.);
#77=FACE_OUTER_BOUND('',#118,.T.);
#78=FACE_OUTER_BOUND('',#119,.T.);
#79=FACE_OUTER_BOUND('',#120,.T.);
#80=FACE_OUTER_BOUND('',#121,.T.);
#81=FACE_OUTER_BOUND('',#122,.T.);
#82=FACE_OUTER_BOUND('',#123,.T.);
#83=FACE_OUTER_BOUND('',#124,.T.);
#84=FACE_OUTER_BOUND('',#125,.T.);
#85=FACE_OUTER_BOUND('',#126,.T.);
#86=FACE_OUTER_BOUND('',#127,.T.);
#87=FACE_OUTER_BOUND('',#128,.T.);
#88=FACE_OUTER_BOUND('',#129,.T.);
#89=FACE_OUTER_BOUND('',#130,.T.);
#90=FACE_OUTER_BOUND('',#131,.T.);
#91=FACE_OUTER_BOUND('',#136,.T.);
#92=FACE_OUTER_BOUND('',#137,.T.);
#93=FACE_OUTER_BOUND('',#138,.T.);
#94=FACE_OUTER_BOUND('',#139,.T.);
#95=FACE_OUTER_BOUND('',#140,.T.);
#96=FACE_OUTER_BOUND('',#141,.T.);
#97=FACE_OUTER_BOUND('',#142,.T.);
#98=FACE_OUTER_BOUND('',#143,.T.);
#99=FACE_OUTER_BOUND('',#144,.T.);
#100=FACE_OUTER_BOUND('',#145,.T.);
#101=FACE_OUTER_BOUND('',#146,.T.);
#102=FACE_OUTER_BOUND('',#147,.T.);
#103=FACE_OUTER_BOUND('',#148,.T.);
#104=FACE_OUTER_BOUND('',#149,.T.);
#105=FACE_OUTER_BOUND('',#150,.T.);
#106=FACE_OUTER_BOUND('',#153,.T.);
#107=FACE_OUTER_BOUND('',#154,.T.);
#108=FACE_OUTER_BOUND('',#155,.T.);
#109=FACE_OUTER_BOUND('',#156,.T.);
#110=FACE_OUTER_BOUND('',#157,.T.);
#111=FACE_OUTER_BOUND('',#158,.T.);
#112=FACE_OUTER_BOUND('',#161,.T.);
#113=FACE_OUTER_BOUND('',#162,.T.);
#114=EDGE_LOOP('',(#503,#504,#505,#506,#507));
#115=EDGE_LOOP('',(#508,#509,#510));
#116=EDGE_LOOP('',(#511,#512,#513,#514));
#117=EDGE_LOOP('',(#515,#516,#517,#518));
#118=EDGE_LOOP('',(#519,#520,#521,#522));
#119=EDGE_LOOP('',(#523,#524,#525,#526));
#120=EDGE_LOOP('',(#527,#528,#529,#530,#531));
#121=EDGE_LOOP('',(#532,#533,#534,#535,#536,#537,#538));
#122=EDGE_LOOP('',(#539,#540,#541,#542));
#123=EDGE_LOOP('',(#543,#544,#545,#546));
#124=EDGE_LOOP('',(#547,#548,#549,#550));
#125=EDGE_LOOP('',(#551,#552,#553,#554));
#126=EDGE_LOOP('',(#555,#556,#557,#558));
#127=EDGE_LOOP('',(#559,#560,#561,#562));
#128=EDGE_LOOP('',(#563,#564,#565,#566,#567));
#129=EDGE_LOOP('',(#568,#569,#570,#571));
#130=EDGE_LOOP('',(#572,#573,#574));
#131=EDGE_LOOP('',(#575,#576,#577,#578,#579,#580,#581,#582,#583,#584,#585,
#586,#587,#588,#589,#590,#591,#592,#593,#594));
#132=EDGE_LOOP('',(#595));
#133=EDGE_LOOP('',(#596));
#134=EDGE_LOOP('',(#597));
#135=EDGE_LOOP('',(#598));
#136=EDGE_LOOP('',(#599,#600,#601,#602));
#137=EDGE_LOOP('',(#603,#604,#605,#606));
#138=EDGE_LOOP('',(#607,#608,#609,#610,#611,#612,#613));
#139=EDGE_LOOP('',(#614,#615,#616,#617));
#140=EDGE_LOOP('',(#618,#619,#620,#621));
#141=EDGE_LOOP('',(#622,#623,#624,#625));
#142=EDGE_LOOP('',(#626,#627,#628,#629));
#143=EDGE_LOOP('',(#630,#631,#632,#633));
#144=EDGE_LOOP('',(#634,#635,#636,#637));
#145=EDGE_LOOP('',(#638,#639,#640,#641));
#146=EDGE_LOOP('',(#642,#643,#644,#645));
#147=EDGE_LOOP('',(#646,#647,#648,#649));
#148=EDGE_LOOP('',(#650,#651,#652,#653));
#149=EDGE_LOOP('',(#654,#655,#656,#657));
#150=EDGE_LOOP('',(#658,#659,#660,#661,#662,#663,#664,#665,#666,#667));
#151=EDGE_LOOP('',(#668));
#152=EDGE_LOOP('',(#669));
#153=EDGE_LOOP('',(#670,#671,#672,#673));
#154=EDGE_LOOP('',(#674,#675,#676,#677));
#155=EDGE_LOOP('',(#678,#679,#680,#681,#682,#683,#684,#685,#686));
#156=EDGE_LOOP('',(#687,#688,#689,#690,#691));
#157=EDGE_LOOP('',(#692,#693,#694,#695));
#158=EDGE_LOOP('',(#696,#697,#698,#699,#700,#701,#702,#703,#704,#705,#706,
#707,#708,#709,#710,#711,#712,#713));
#159=EDGE_LOOP('',(#714));
#160=EDGE_LOOP('',(#715));
#161=EDGE_LOOP('',(#716,#717,#718,#719,#720,#721,#722,#723,#724));
#162=EDGE_LOOP('',(#725,#726,#727,#728));
#163=LINE('',#1102,#230);
#164=LINE('',#1106,#231);
#165=LINE('',#1113,#232);
#166=LINE('',#1117,#233);
#167=LINE('',#1119,#234);
#168=LINE('',#1120,#235);
#169=LINE('',#1126,#236);
#170=LINE('',#1129,#237);
#171=LINE('',#1134,#238);
#172=LINE('',#1255,#239);
#173=LINE('',#1257,#240);
#174=LINE('',#1258,#241);
#175=LINE('',#1263,#242);
#176=LINE('',#1267,#243);
#177=LINE('',#1270,#244);
#178=LINE('',#1272,#245);
#179=LINE('',#1274,#246);
#180=LINE('',#1275,#247);
#181=LINE('',#1281,#248);
#182=LINE('',#1284,#249);
#183=LINE('',#1406,#250);
#184=LINE('',#1410,#251);
#185=LINE('',#1411,#252);
#186=LINE('',#1417,#253);
#187=LINE('',#1422,#254);
#188=LINE('',#1425,#255);
#189=LINE('',#1427,#256);
#190=LINE('',#1428,#257);
#191=LINE('',#1435,#258);
#192=LINE('',#1441,#259);
#193=LINE('',#1445,#260);
#194=LINE('',#1448,#261);
#195=LINE('',#1449,#262);
#196=LINE('',#1451,#263);
#197=LINE('',#1455,#264);
#198=LINE('',#1458,#265);
#199=LINE('',#1459,#266);
#200=LINE('',#1460,#267);
#201=LINE('',#1473,#268);
#202=LINE('',#1474,#269);
#203=LINE('',#1476,#270);
#204=LINE('',#1480,#271);
#205=LINE('',#1482,#272);
#206=LINE('',#1486,#273);
#207=LINE('',#1487,#274);
#208=LINE('',#1490,#275);
#209=LINE('',#1493,#276);
#210=LINE('',#1497,#277);
#211=LINE('',#1498,#278);
#212=LINE('',#1499,#279);
#213=LINE('',#1503,#280);
#214=LINE('',#1505,#281);
#215=LINE('',#1509,#282);
#216=LINE('',#1513,#283);
#217=LINE('',#1517,#284);
#218=LINE('',#1521,#285);
#219=LINE('',#1523,#286);
#220=LINE('',#1525,#287);
#221=LINE('',#1528,#288);
#222=LINE('',#1529,#289);
#223=LINE('',#1533,#290);
#224=LINE('',#1536,#291);
#225=LINE('',#1538,#292);
#226=LINE('',#1539,#293);
#227=LINE('',#1541,#294);
#228=LINE('',#1542,#295);
#229=LINE('',#1544,#296);
#230=VECTOR('',#875,3.);
#231=VECTOR('',#878,3.);
#232=VECTOR('',#885,10.);
#233=VECTOR('',#890,10.);
#234=VECTOR('',#891,10.);
#235=VECTOR('',#892,10.);
#236=VECTOR('',#897,10.);
#237=VECTOR('',#900,10.);
#238=VECTOR('',#905,10.);
#239=VECTOR('',#910,10.);
#240=VECTOR('',#911,10.);
#241=VECTOR('',#912,10.);
#242=VECTOR('',#917,10.);
#243=VECTOR('',#920,10.);
#244=VECTOR('',#923,10.);
#245=VECTOR('',#926,10.);
#246=VECTOR('',#929,10.);
#247=VECTOR('',#930,10.);
#248=VECTOR('',#935,10.);
#249=VECTOR('',#938,10.);
#250=VECTOR('',#943,10.);
#251=VECTOR('',#948,10.);
#252=VECTOR('',#949,10.);
#253=VECTOR('',#954,3.);
#254=VECTOR('',#959,3.);
#255=VECTOR('',#962,10.);
#256=VECTOR('',#963,10.);
#257=VECTOR('',#964,10.);
#258=VECTOR('',#971,10.);
#259=VECTOR('',#976,10.);
#260=VECTOR('',#979,10.);
#261=VECTOR('',#982,10.);
#262=VECTOR('',#983,10.);
#263=VECTOR('',#984,10.);
#264=VECTOR('',#987,10.);
#265=VECTOR('',#990,10.);
#266=VECTOR('',#991,10.);
#267=VECTOR('',#992,10.);
#268=VECTOR('',#1005,10.);
#269=VECTOR('',#1006,10.);
#270=VECTOR('',#1009,10.);
#271=VECTOR('',#1014,10.);
#272=VECTOR('',#1015,10.);
#273=VECTOR('',#1020,10.);
#274=VECTOR('',#1021,10.);
#275=VECTOR('',#1024,10.);
#276=VECTOR('',#1029,10.);
#277=VECTOR('',#1032,10.);
#278=VECTOR('',#1033,10.);
#279=VECTOR('',#1034,10.);
#280=VECTOR('',#1039,10.);
#281=VECTOR('',#1042,10.);
#282=VECTOR('',#1047,1.58749999999998);
#283=VECTOR('',#1052,1.58749999999998);
#284=VECTOR('',#1057,1.58749999999998);
#285=VECTOR('',#1062,1.58749999999998);
#286=VECTOR('',#1065,10.);
#287=VECTOR('',#1068,10.);
#288=VECTOR('',#1071,10.);
#289=VECTOR('',#1072,10.);
#290=VECTOR('',#1079,10.);
#291=VECTOR('',#1082,10.);
#292=VECTOR('',#1083,10.);
#293=VECTOR('',#1084,10.);
#294=VECTOR('',#1087,10.);
#295=VECTOR('',#1088,10.);
#296=VECTOR('',#1091,10.);
#297=ELLIPSE('',#791,3.09186702079241,3.);
#298=ELLIPSE('',#792,3.04489461335913,3.);
#299=ELLIPSE('',#793,3.04489461335913,3.);
#300=ELLIPSE('',#795,6.44795898547461,6.35000000000012);
#301=ELLIPSE('',#802,3.09186702079241,3.);
#302=ELLIPSE('',#803,3.04489461335912,3.);
#303=ELLIPSE('',#806,3.86877539128471,3.81000000000002);
#304=ELLIPSE('',#815,3.04489461335913,3.);
#305=ELLIPSE('',#816,3.09186702079241,3.);
#306=ELLIPSE('',#819,3.04489461335912,3.);
#307=ELLIPSE('',#820,3.09186702079241,3.);
#308=ELLIPSE('',#821,3.04489461335912,3.);
#309=ELLIPSE('',#824,6.44795898547461,6.35000000000012);
#310=ELLIPSE('',#837,3.8687753912847,3.81000000000001);
#311=ELLIPSE('',#840,3.86877539128471,3.81000000000002);
#312=ELLIPSE('',#848,6.44795898547445,6.34999999999997);
#313=ELLIPSE('',#855,1.6119897463686,1.58749999999998);
#314=ELLIPSE('',#857,1.6119897463686,1.58749999999998);
#315=ELLIPSE('',#862,3.86877539128469,3.81);
#316=VERTEX_POINT('',#1098);
#317=VERTEX_POINT('',#1099);
#318=VERTEX_POINT('',#1101);
#319=VERTEX_POINT('',#1103);
#320=VERTEX_POINT('',#1105);
#321=VERTEX_POINT('',#1109);
#322=VERTEX_POINT('',#1110);
#323=VERTEX_POINT('',#1112);
#324=VERTEX_POINT('',#1116);
#325=VERTEX_POINT('',#1118);
#326=VERTEX_POINT('',#1122);
#327=VERTEX_POINT('',#1123);
#328=VERTEX_POINT('',#1125);
#329=VERTEX_POINT('',#1127);
#330=VERTEX_POINT('',#1131);
#331=VERTEX_POINT('',#1132);
#332=VERTEX_POINT('',#1164);
#333=VERTEX_POINT('',#1165);
#334=VERTEX_POINT('',#1254);
#335=VERTEX_POINT('',#1256);
#336=VERTEX_POINT('',#1260);
#337=VERTEX_POINT('',#1262);
#338=VERTEX_POINT('',#1264);
#339=VERTEX_POINT('',#1266);
#340=VERTEX_POINT('',#1268);
#341=VERTEX_POINT('',#1277);
#342=VERTEX_POINT('',#1278);
#343=VERTEX_POINT('',#1280);
#344=VERTEX_POINT('',#1282);
#345=VERTEX_POINT('',#1313);
#346=VERTEX_POINT('',#1314);
#347=VERTEX_POINT('',#1403);
#348=VERTEX_POINT('',#1405);
#349=VERTEX_POINT('',#1409);
#350=VERTEX_POINT('',#1413);
#351=VERTEX_POINT('',#1414);
#352=VERTEX_POINT('',#1416);
#353=VERTEX_POINT('',#1418);
#354=VERTEX_POINT('',#1420);
#355=VERTEX_POINT('',#1424);
#356=VERTEX_POINT('',#1426);
#357=VERTEX_POINT('',#1430);
#358=VERTEX_POINT('',#1431);
#359=VERTEX_POINT('',#1433);
#360=VERTEX_POINT('',#1437);
#361=VERTEX_POINT('',#1438);
#362=VERTEX_POINT('',#1440);
#363=VERTEX_POINT('',#1442);
#364=VERTEX_POINT('',#1444);
#365=VERTEX_POINT('',#1446);
#366=VERTEX_POINT('',#1450);
#367=VERTEX_POINT('',#1452);
#368=VERTEX_POINT('',#1454);
#369=VERTEX_POINT('',#1456);
#370=VERTEX_POINT('',#1461);
#371=VERTEX_POINT('',#1463);
#372=VERTEX_POINT('',#1465);
#373=VERTEX_POINT('',#1467);
#374=VERTEX_POINT('',#1470);
#375=VERTEX_POINT('',#1471);
#376=VERTEX_POINT('',#1478);
#377=VERTEX_POINT('',#1481);
#378=VERTEX_POINT('',#1485);
#379=VERTEX_POINT('',#1489);
#380=VERTEX_POINT('',#1495);
#381=VERTEX_POINT('',#1496);
#382=VERTEX_POINT('',#1501);
#383=VERTEX_POINT('',#1507);
#384=VERTEX_POINT('',#1511);
#385=VERTEX_POINT('',#1515);
#386=VERTEX_POINT('',#1519);
#387=VERTEX_POINT('',#1527);
#388=VERTEX_POINT('',#1535);
#389=VERTEX_POINT('',#1537);
#390=EDGE_CURVE('',#316,#317,#297,.F.);
#391=EDGE_CURVE('',#316,#318,#163,.T.);
#392=EDGE_CURVE('',#319,#318,#298,.F.);
#393=EDGE_CURVE('',#319,#320,#164,.T.);
#394=EDGE_CURVE('',#320,#317,#299,.T.);
#395=EDGE_CURVE('',#321,#322,#300,.T.);
#396=EDGE_CURVE('',#323,#322,#165,.T.);
#397=EDGE_CURVE('',#321,#323,#52,.T.);
#398=EDGE_CURVE('',#324,#319,#166,.T.);
#399=EDGE_CURVE('',#324,#325,#167,.T.);
#400=EDGE_CURVE('',#325,#320,#168,.T.);
#401=EDGE_CURVE('',#326,#327,#53,.T.);
#402=EDGE_CURVE('',#327,#328,#169,.T.);
#403=EDGE_CURVE('',#328,#329,#54,.T.);
#404=EDGE_CURVE('',#329,#326,#170,.T.);
#405=EDGE_CURVE('',#330,#331,#301,.F.);
#406=EDGE_CURVE('',#330,#329,#171,.T.);
#407=EDGE_CURVE('',#328,#331,#302,.T.);
#408=EDGE_CURVE('',#332,#333,#23,.T.);
#409=EDGE_CURVE('',#333,#327,#24,.T.);
#410=EDGE_CURVE('',#326,#332,#25,.T.);
#411=EDGE_CURVE('',#334,#333,#172,.T.);
#412=EDGE_CURVE('',#334,#335,#173,.T.);
#413=EDGE_CURVE('',#335,#328,#174,.T.);
#414=EDGE_CURVE('',#336,#332,#303,.T.);
#415=EDGE_CURVE('',#326,#337,#175,.T.);
#416=EDGE_CURVE('',#338,#337,#55,.T.);
#417=EDGE_CURVE('',#339,#338,#176,.T.);
#418=EDGE_CURVE('',#339,#340,#56,.T.);
#419=EDGE_CURVE('',#340,#336,#177,.T.);
#420=EDGE_CURVE('',#337,#330,#178,.T.);
#421=EDGE_CURVE('',#322,#336,#179,.T.);
#422=EDGE_CURVE('',#340,#323,#180,.T.);
#423=EDGE_CURVE('',#341,#342,#57,.T.);
#424=EDGE_CURVE('',#342,#343,#181,.T.);
#425=EDGE_CURVE('',#343,#344,#58,.T.);
#426=EDGE_CURVE('',#344,#341,#182,.T.);
#427=EDGE_CURVE('',#345,#346,#26,.F.);
#428=EDGE_CURVE('',#345,#342,#27,.T.);
#429=EDGE_CURVE('',#341,#346,#28,.T.);
#430=EDGE_CURVE('',#344,#347,#304,.F.);
#431=EDGE_CURVE('',#343,#348,#183,.T.);
#432=EDGE_CURVE('',#348,#347,#305,.T.);
#433=EDGE_CURVE('',#342,#349,#184,.T.);
#434=EDGE_CURVE('',#348,#349,#185,.T.);
#435=EDGE_CURVE('',#350,#351,#306,.T.);
#436=EDGE_CURVE('',#351,#352,#186,.T.);
#437=EDGE_CURVE('',#352,#353,#307,.T.);
#438=EDGE_CURVE('',#354,#353,#308,.F.);
#439=EDGE_CURVE('',#354,#350,#187,.T.);
#440=EDGE_CURVE('',#354,#355,#188,.T.);
#441=EDGE_CURVE('',#356,#355,#189,.T.);
#442=EDGE_CURVE('',#350,#356,#190,.T.);
#443=EDGE_CURVE('',#357,#358,#309,.T.);
#444=EDGE_CURVE('',#359,#357,#59,.T.);
#445=EDGE_CURVE('',#359,#358,#191,.T.);
#446=EDGE_CURVE('',#360,#361,#60,.T.);
#447=EDGE_CURVE('',#362,#360,#192,.T.);
#448=EDGE_CURVE('',#362,#363,#61,.T.);
#449=EDGE_CURVE('',#364,#363,#193,.T.);
#450=EDGE_CURVE('',#365,#364,#62,.T.);
#451=EDGE_CURVE('',#316,#365,#194,.T.);
#452=EDGE_CURVE('',#317,#321,#195,.F.);
#453=EDGE_CURVE('',#366,#339,#196,.T.);
#454=EDGE_CURVE('',#366,#367,#63,.T.);
#455=EDGE_CURVE('',#368,#367,#197,.T.);
#456=EDGE_CURVE('',#369,#368,#64,.T.);
#457=EDGE_CURVE('',#359,#369,#198,.T.);
#458=EDGE_CURVE('',#353,#357,#199,.T.);
#459=EDGE_CURVE('',#361,#352,#200,.T.);
#460=EDGE_CURVE('',#370,#370,#65,.T.);
#461=EDGE_CURVE('',#371,#371,#66,.T.);
#462=EDGE_CURVE('',#372,#372,#67,.T.);
#463=EDGE_CURVE('',#373,#373,#68,.T.);
#464=EDGE_CURVE('',#374,#375,#310,.T.);
#465=EDGE_CURVE('',#360,#374,#201,.T.);
#466=EDGE_CURVE('',#361,#375,#202,.T.);
#467=EDGE_CURVE('',#375,#351,#203,.T.);
#468=EDGE_CURVE('',#345,#376,#311,.T.);
#469=EDGE_CURVE('',#369,#376,#204,.T.);
#470=EDGE_CURVE('',#368,#377,#205,.T.);
#471=EDGE_CURVE('',#349,#377,#69,.T.);
#472=EDGE_CURVE('',#367,#378,#206,.T.);
#473=EDGE_CURVE('',#377,#378,#207,.T.);
#474=EDGE_CURVE('',#366,#379,#208,.T.);
#475=EDGE_CURVE('',#378,#379,#70,.T.);
#476=EDGE_CURVE('',#379,#338,#209,.T.);
#477=EDGE_CURVE('',#380,#381,#210,.T.);
#478=EDGE_CURVE('',#364,#380,#211,.T.);
#479=EDGE_CURVE('',#363,#381,#212,.T.);
#480=EDGE_CURVE('',#381,#382,#312,.T.);
#481=EDGE_CURVE('',#362,#382,#213,.T.);
#482=EDGE_CURVE('',#382,#374,#214,.T.);
#483=EDGE_CURVE('',#383,#383,#71,.T.);
#484=EDGE_CURVE('',#383,#370,#215,.T.);
#485=EDGE_CURVE('',#384,#384,#72,.T.);
#486=EDGE_CURVE('',#384,#371,#216,.T.);
#487=EDGE_CURVE('',#385,#385,#313,.T.);
#488=EDGE_CURVE('',#385,#372,#217,.T.);
#489=EDGE_CURVE('',#386,#386,#314,.T.);
#490=EDGE_CURVE('',#386,#373,#218,.T.);
#491=EDGE_CURVE('',#376,#358,#219,.T.);
#492=EDGE_CURVE('',#331,#347,#220,.F.);
#493=EDGE_CURVE('',#365,#387,#221,.T.);
#494=EDGE_CURVE('',#318,#387,#222,.T.);
#495=EDGE_CURVE('',#387,#380,#315,.T.);
#496=EDGE_CURVE('',#325,#334,#223,.T.);
#497=EDGE_CURVE('',#344,#388,#224,.T.);
#498=EDGE_CURVE('',#389,#388,#225,.T.);
#499=EDGE_CURVE('',#346,#389,#226,.T.);
#500=EDGE_CURVE('',#388,#356,#227,.T.);
#501=EDGE_CURVE('',#355,#389,#228,.T.);
#502=EDGE_CURVE('',#335,#324,#229,.T.);
#503=ORIENTED_EDGE('',*,*,#390,.F.);
#504=ORIENTED_EDGE('',*,*,#391,.T.);
#505=ORIENTED_EDGE('',*,*,#392,.F.);
#506=ORIENTED_EDGE('',*,*,#393,.T.);
#507=ORIENTED_EDGE('',*,*,#394,.T.);
#508=ORIENTED_EDGE('',*,*,#395,.T.);
#509=ORIENTED_EDGE('',*,*,#396,.F.);
#510=ORIENTED_EDGE('',*,*,#397,.F.);
#511=ORIENTED_EDGE('',*,*,#393,.F.);
#512=ORIENTED_EDGE('',*,*,#398,.F.);
#513=ORIENTED_EDGE('',*,*,#399,.T.);
#514=ORIENTED_EDGE('',*,*,#400,.T.);
#515=ORIENTED_EDGE('',*,*,#401,.T.);
#516=ORIENTED_EDGE('',*,*,#402,.T.);
#517=ORIENTED_EDGE('',*,*,#403,.T.);
#518=ORIENTED_EDGE('',*,*,#404,.T.);
#519=ORIENTED_EDGE('',*,*,#405,.F.);
#520=ORIENTED_EDGE('',*,*,#406,.T.);
#521=ORIENTED_EDGE('',*,*,#403,.F.);
#522=ORIENTED_EDGE('',*,*,#407,.T.);
#523=ORIENTED_EDGE('',*,*,#408,.T.);
#524=ORIENTED_EDGE('',*,*,#409,.T.);
#525=ORIENTED_EDGE('',*,*,#401,.F.);
#526=ORIENTED_EDGE('',*,*,#410,.T.);
#527=ORIENTED_EDGE('',*,*,#402,.F.);
#528=ORIENTED_EDGE('',*,*,#409,.F.);
#529=ORIENTED_EDGE('',*,*,#411,.F.);
#530=ORIENTED_EDGE('',*,*,#412,.T.);
#531=ORIENTED_EDGE('',*,*,#413,.T.);
#532=ORIENTED_EDGE('',*,*,#414,.T.);
#533=ORIENTED_EDGE('',*,*,#410,.F.);
#534=ORIENTED_EDGE('',*,*,#415,.T.);
#535=ORIENTED_EDGE('',*,*,#416,.F.);
#536=ORIENTED_EDGE('',*,*,#417,.F.);
#537=ORIENTED_EDGE('',*,*,#418,.T.);
#538=ORIENTED_EDGE('',*,*,#419,.T.);
#539=ORIENTED_EDGE('',*,*,#406,.F.);
#540=ORIENTED_EDGE('',*,*,#420,.F.);
#541=ORIENTED_EDGE('',*,*,#415,.F.);
#542=ORIENTED_EDGE('',*,*,#404,.F.);
#543=ORIENTED_EDGE('',*,*,#421,.T.);
#544=ORIENTED_EDGE('',*,*,#419,.F.);
#545=ORIENTED_EDGE('',*,*,#422,.T.);
#546=ORIENTED_EDGE('',*,*,#396,.T.);
#547=ORIENTED_EDGE('',*,*,#423,.T.);
#548=ORIENTED_EDGE('',*,*,#424,.T.);
#549=ORIENTED_EDGE('',*,*,#425,.T.);
#550=ORIENTED_EDGE('',*,*,#426,.T.);
#551=ORIENTED_EDGE('',*,*,#427,.F.);
#552=ORIENTED_EDGE('',*,*,#428,.T.);
#553=ORIENTED_EDGE('',*,*,#423,.F.);
#554=ORIENTED_EDGE('',*,*,#429,.T.);
#555=ORIENTED_EDGE('',*,*,#430,.F.);
#556=ORIENTED_EDGE('',*,*,#425,.F.);
#557=ORIENTED_EDGE('',*,*,#431,.T.);
#558=ORIENTED_EDGE('',*,*,#432,.T.);
#559=ORIENTED_EDGE('',*,*,#431,.F.);
#560=ORIENTED_EDGE('',*,*,#424,.F.);
#561=ORIENTED_EDGE('',*,*,#433,.T.);
#562=ORIENTED_EDGE('',*,*,#434,.F.);
#563=ORIENTED_EDGE('',*,*,#435,.T.);
#564=ORIENTED_EDGE('',*,*,#436,.T.);
#565=ORIENTED_EDGE('',*,*,#437,.T.);
#566=ORIENTED_EDGE('',*,*,#438,.F.);
#567=ORIENTED_EDGE('',*,*,#439,.T.);
#568=ORIENTED_EDGE('',*,*,#439,.F.);
#569=ORIENTED_EDGE('',*,*,#440,.T.);
#570=ORIENTED_EDGE('',*,*,#441,.F.);
#571=ORIENTED_EDGE('',*,*,#442,.F.);
#572=ORIENTED_EDGE('',*,*,#443,.F.);
#573=ORIENTED_EDGE('',*,*,#444,.F.);
#574=ORIENTED_EDGE('',*,*,#445,.T.);
#575=ORIENTED_EDGE('',*,*,#446,.F.);
#576=ORIENTED_EDGE('',*,*,#447,.F.);
#577=ORIENTED_EDGE('',*,*,#448,.T.);
#578=ORIENTED_EDGE('',*,*,#449,.F.);
#579=ORIENTED_EDGE('',*,*,#450,.F.);
#580=ORIENTED_EDGE('',*,*,#451,.F.);
#581=ORIENTED_EDGE('',*,*,#390,.T.);
#582=ORIENTED_EDGE('',*,*,#452,.T.);
#583=ORIENTED_EDGE('',*,*,#397,.T.);
#584=ORIENTED_EDGE('',*,*,#422,.F.);
#585=ORIENTED_EDGE('',*,*,#418,.F.);
#586=ORIENTED_EDGE('',*,*,#453,.F.);
#587=ORIENTED_EDGE('',*,*,#454,.T.);
#588=ORIENTED_EDGE('',*,*,#455,.F.);
#589=ORIENTED_EDGE('',*,*,#456,.F.);
#590=ORIENTED_EDGE('',*,*,#457,.F.);
#591=ORIENTED_EDGE('',*,*,#444,.T.);
#592=ORIENTED_EDGE('',*,*,#458,.F.);
#593=ORIENTED_EDGE('',*,*,#437,.F.);
#594=ORIENTED_EDGE('',*,*,#459,.F.);
#595=ORIENTED_EDGE('',*,*,#460,.F.);
#596=ORIENTED_EDGE('',*,*,#461,.F.);
#597=ORIENTED_EDGE('',*,*,#462,.F.);
#598=ORIENTED_EDGE('',*,*,#463,.F.);
#599=ORIENTED_EDGE('',*,*,#464,.F.);
#600=ORIENTED_EDGE('',*,*,#465,.F.);
#601=ORIENTED_EDGE('',*,*,#446,.T.);
#602=ORIENTED_EDGE('',*,*,#466,.T.);
#603=ORIENTED_EDGE('',*,*,#436,.F.);
#604=ORIENTED_EDGE('',*,*,#467,.F.);
#605=ORIENTED_EDGE('',*,*,#466,.F.);
#606=ORIENTED_EDGE('',*,*,#459,.T.);
#607=ORIENTED_EDGE('',*,*,#468,.T.);
#608=ORIENTED_EDGE('',*,*,#469,.F.);
#609=ORIENTED_EDGE('',*,*,#456,.T.);
#610=ORIENTED_EDGE('',*,*,#470,.T.);
#611=ORIENTED_EDGE('',*,*,#471,.F.);
#612=ORIENTED_EDGE('',*,*,#433,.F.);
#613=ORIENTED_EDGE('',*,*,#428,.F.);
#614=ORIENTED_EDGE('',*,*,#455,.T.);
#615=ORIENTED_EDGE('',*,*,#472,.T.);
#616=ORIENTED_EDGE('',*,*,#473,.F.);
#617=ORIENTED_EDGE('',*,*,#470,.F.);
#618=ORIENTED_EDGE('',*,*,#454,.F.);
#619=ORIENTED_EDGE('',*,*,#474,.T.);
#620=ORIENTED_EDGE('',*,*,#475,.F.);
#621=ORIENTED_EDGE('',*,*,#472,.F.);
#622=ORIENTED_EDGE('',*,*,#453,.T.);
#623=ORIENTED_EDGE('',*,*,#417,.T.);
#624=ORIENTED_EDGE('',*,*,#476,.F.);
#625=ORIENTED_EDGE('',*,*,#474,.F.);
#626=ORIENTED_EDGE('',*,*,#477,.F.);
#627=ORIENTED_EDGE('',*,*,#478,.F.);
#628=ORIENTED_EDGE('',*,*,#449,.T.);
#629=ORIENTED_EDGE('',*,*,#479,.T.);
#630=ORIENTED_EDGE('',*,*,#480,.F.);
#631=ORIENTED_EDGE('',*,*,#479,.F.);
#632=ORIENTED_EDGE('',*,*,#448,.F.);
#633=ORIENTED_EDGE('',*,*,#481,.T.);
#634=ORIENTED_EDGE('',*,*,#482,.F.);
#635=ORIENTED_EDGE('',*,*,#481,.F.);
#636=ORIENTED_EDGE('',*,*,#447,.T.);
#637=ORIENTED_EDGE('',*,*,#465,.T.);
#638=ORIENTED_EDGE('',*,*,#483,.F.);
#639=ORIENTED_EDGE('',*,*,#484,.T.);
#640=ORIENTED_EDGE('',*,*,#460,.T.);
#641=ORIENTED_EDGE('',*,*,#484,.F.);
#642=ORIENTED_EDGE('',*,*,#485,.F.);
#643=ORIENTED_EDGE('',*,*,#486,.T.);
#644=ORIENTED_EDGE('',*,*,#461,.T.);
#645=ORIENTED_EDGE('',*,*,#486,.F.);
#646=ORIENTED_EDGE('',*,*,#487,.F.);
#647=ORIENTED_EDGE('',*,*,#488,.T.);
#648=ORIENTED_EDGE('',*,*,#462,.T.);
#649=ORIENTED_EDGE('',*,*,#488,.F.);
#650=ORIENTED_EDGE('',*,*,#489,.F.);
#651=ORIENTED_EDGE('',*,*,#490,.T.);
#652=ORIENTED_EDGE('',*,*,#463,.T.);
#653=ORIENTED_EDGE('',*,*,#490,.F.);
#654=ORIENTED_EDGE('',*,*,#491,.T.);
#655=ORIENTED_EDGE('',*,*,#445,.F.);
#656=ORIENTED_EDGE('',*,*,#457,.T.);
#657=ORIENTED_EDGE('',*,*,#469,.T.);
#658=ORIENTED_EDGE('',*,*,#492,.T.);
#659=ORIENTED_EDGE('',*,*,#432,.F.);
#660=ORIENTED_EDGE('',*,*,#434,.T.);
#661=ORIENTED_EDGE('',*,*,#471,.T.);
#662=ORIENTED_EDGE('',*,*,#473,.T.);
#663=ORIENTED_EDGE('',*,*,#475,.T.);
#664=ORIENTED_EDGE('',*,*,#476,.T.);
#665=ORIENTED_EDGE('',*,*,#416,.T.);
#666=ORIENTED_EDGE('',*,*,#420,.T.);
#667=ORIENTED_EDGE('',*,*,#405,.T.);
#668=ORIENTED_EDGE('',*,*,#485,.T.);
#669=ORIENTED_EDGE('',*,*,#483,.T.);
#670=ORIENTED_EDGE('',*,*,#391,.F.);
#671=ORIENTED_EDGE('',*,*,#451,.T.);
#672=ORIENTED_EDGE('',*,*,#493,.T.);
#673=ORIENTED_EDGE('',*,*,#494,.F.);
#674=ORIENTED_EDGE('',*,*,#495,.F.);
#675=ORIENTED_EDGE('',*,*,#493,.F.);
#676=ORIENTED_EDGE('',*,*,#450,.T.);
#677=ORIENTED_EDGE('',*,*,#478,.T.);
#678=ORIENTED_EDGE('',*,*,#421,.F.);
#679=ORIENTED_EDGE('',*,*,#395,.F.);
#680=ORIENTED_EDGE('',*,*,#452,.F.);
#681=ORIENTED_EDGE('',*,*,#394,.F.);
#682=ORIENTED_EDGE('',*,*,#400,.F.);
#683=ORIENTED_EDGE('',*,*,#496,.T.);
#684=ORIENTED_EDGE('',*,*,#411,.T.);
#685=ORIENTED_EDGE('',*,*,#408,.F.);
#686=ORIENTED_EDGE('',*,*,#414,.F.);
#687=ORIENTED_EDGE('',*,*,#426,.F.);
#688=ORIENTED_EDGE('',*,*,#497,.T.);
#689=ORIENTED_EDGE('',*,*,#498,.F.);
#690=ORIENTED_EDGE('',*,*,#499,.F.);
#691=ORIENTED_EDGE('',*,*,#429,.F.);
#692=ORIENTED_EDGE('',*,*,#498,.T.);
#693=ORIENTED_EDGE('',*,*,#500,.T.);
#694=ORIENTED_EDGE('',*,*,#441,.T.);
#695=ORIENTED_EDGE('',*,*,#501,.T.);
#696=ORIENTED_EDGE('',*,*,#442,.T.);
#697=ORIENTED_EDGE('',*,*,#500,.F.);
#698=ORIENTED_EDGE('',*,*,#497,.F.);
#699=ORIENTED_EDGE('',*,*,#430,.T.);
#700=ORIENTED_EDGE('',*,*,#492,.F.);
#701=ORIENTED_EDGE('',*,*,#407,.F.);
#702=ORIENTED_EDGE('',*,*,#413,.F.);
#703=ORIENTED_EDGE('',*,*,#502,.T.);
#704=ORIENTED_EDGE('',*,*,#398,.T.);
#705=ORIENTED_EDGE('',*,*,#392,.T.);
#706=ORIENTED_EDGE('',*,*,#494,.T.);
#707=ORIENTED_EDGE('',*,*,#495,.T.);
#708=ORIENTED_EDGE('',*,*,#477,.T.);
#709=ORIENTED_EDGE('',*,*,#480,.T.);
#710=ORIENTED_EDGE('',*,*,#482,.T.);
#711=ORIENTED_EDGE('',*,*,#464,.T.);
#712=ORIENTED_EDGE('',*,*,#467,.T.);
#713=ORIENTED_EDGE('',*,*,#435,.F.);
#714=ORIENTED_EDGE('',*,*,#489,.T.);
#715=ORIENTED_EDGE('',*,*,#487,.T.);
#716=ORIENTED_EDGE('',*,*,#491,.F.);
#717=ORIENTED_EDGE('',*,*,#468,.F.);
#718=ORIENTED_EDGE('',*,*,#427,.T.);
#719=ORIENTED_EDGE('',*,*,#499,.T.);
#720=ORIENTED_EDGE('',*,*,#501,.F.);
#721=ORIENTED_EDGE('',*,*,#440,.F.);
#722=ORIENTED_EDGE('',*,*,#438,.T.);
#723=ORIENTED_EDGE('',*,*,#458,.T.);
#724=ORIENTED_EDGE('',*,*,#443,.T.);
#725=ORIENTED_EDGE('',*,*,#502,.F.);
#726=ORIENTED_EDGE('',*,*,#412,.F.);
#727=ORIENTED_EDGE('',*,*,#496,.F.);
#728=ORIENTED_EDGE('',*,*,#399,.F.);
#729=CYLINDRICAL_SURFACE('',#790,3.);
#730=CYLINDRICAL_SURFACE('',#794,6.35000000000012);
#731=CYLINDRICAL_SURFACE('',#798,3.);
#732=CYLINDRICAL_SURFACE('',#801,3.);
#733=CYLINDRICAL_SURFACE('',#805,3.81000000000002);
#734=CYLINDRICAL_SURFACE('',#811,3.);
#735=CYLINDRICAL_SURFACE('',#814,3.);
#736=CYLINDRICAL_SURFACE('',#818,3.);
#737=CYLINDRICAL_SURFACE('',#823,6.35000000000012);
#738=CYLINDRICAL_SURFACE('',#836,3.81000000000001);
#739=CYLINDRICAL_SURFACE('',#839,3.81000000000002);
#740=CYLINDRICAL_SURFACE('',#843,6.35000000000001);
#741=CYLINDRICAL_SURFACE('',#847,6.34999999999997);
#742=CYLINDRICAL_SURFACE('',#850,1.58749999999998);
#743=CYLINDRICAL_SURFACE('',#852,1.58749999999998);
#744=CYLINDRICAL_SURFACE('',#854,1.58749999999998);
#745=CYLINDRICAL_SURFACE('',#856,1.58749999999998);
#746=CYLINDRICAL_SURFACE('',#861,3.81);
#747=ADVANCED_FACE('',(#73),#729,.F.);
#748=ADVANCED_FACE('',(#74),#730,.F.);
#749=ADVANCED_FACE('',(#75),#31,.T.);
#750=ADVANCED_FACE('',(#76),#731,.F.);
#751=ADVANCED_FACE('',(#77),#732,.F.);
#752=ADVANCED_FACE('',(#78),#29,.T.);
#753=ADVANCED_FACE('',(#79),#32,.T.);
#754=ADVANCED_FACE('',(#80),#733,.T.);
#755=ADVANCED_FACE('',(#81),#33,.T.);
#756=ADVANCED_FACE('',(#82),#34,.T.);
#757=ADVANCED_FACE('',(#83),#734,.F.);
#758=ADVANCED_FACE('',(#84),#30,.T.);
#759=ADVANCED_FACE('',(#85),#735,.F.);
#760=ADVANCED_FACE('',(#86),#35,.T.);
#761=ADVANCED_FACE('',(#87),#736,.F.);
#762=ADVANCED_FACE('',(#88),#36,.T.);
#763=ADVANCED_FACE('',(#89),#737,.F.);
#764=ADVANCED_FACE('',(#90,#15,#16,#17,#18),#37,.F.);
#765=ADVANCED_FACE('',(#91),#738,.T.);
#766=ADVANCED_FACE('',(#92),#38,.T.);
#767=ADVANCED_FACE('',(#93),#739,.T.);
#768=ADVANCED_FACE('',(#94),#39,.T.);
#769=ADVANCED_FACE('',(#95),#740,.F.);
#770=ADVANCED_FACE('',(#96),#40,.T.);
#771=ADVANCED_FACE('',(#97),#41,.T.);
#772=ADVANCED_FACE('',(#98),#741,.F.);
#773=ADVANCED_FACE('',(#99),#42,.T.);
#774=ADVANCED_FACE('',(#100),#742,.F.);
#775=ADVANCED_FACE('',(#101),#743,.F.);
#776=ADVANCED_FACE('',(#102),#744,.F.);
#777=ADVANCED_FACE('',(#103),#745,.F.);
#778=ADVANCED_FACE('',(#104),#43,.T.);
#779=ADVANCED_FACE('',(#105,#19,#20),#44,.T.);
#780=ADVANCED_FACE('',(#106),#45,.T.);
#781=ADVANCED_FACE('',(#107),#746,.T.);
#782=ADVANCED_FACE('',(#108),#46,.T.);
#783=ADVANCED_FACE('',(#109),#47,.T.);
#784=ADVANCED_FACE('',(#110),#48,.F.);
#785=ADVANCED_FACE('',(#111,#21,#22),#49,.T.);
#786=ADVANCED_FACE('',(#112),#50,.T.);
#787=ADVANCED_FACE('',(#113),#51,.F.);
#788=CLOSED_SHELL('',(#747,#748,#749,#750,#751,#752,#753,#754,#755,#756,
#757,#758,#759,#760,#761,#762,#763,#764,#765,#766,#767,#768,#769,#770,#771,
#772,#773,#774,#775,#776,#777,#778,#779,#780,#781,#782,#783,#784,#785,#786,
#787));
#789=AXIS2_PLACEMENT_3D('',#1096,#869,#870);
#790=AXIS2_PLACEMENT_3D('',#1097,#871,#872);
#791=AXIS2_PLACEMENT_3D('',#1100,#873,#874);
#792=AXIS2_PLACEMENT_3D('',#1104,#876,#877);
#793=AXIS2_PLACEMENT_3D('',#1107,#879,#880);
#794=AXIS2_PLACEMENT_3D('',#1108,#881,#882);
#795=AXIS2_PLACEMENT_3D('',#1111,#883,#884);
#796=AXIS2_PLACEMENT_3D('',#1114,#886,#887);
#797=AXIS2_PLACEMENT_3D('',#1115,#888,#889);
#798=AXIS2_PLACEMENT_3D('',#1121,#893,#894);
#799=AXIS2_PLACEMENT_3D('',#1124,#895,#896);
#800=AXIS2_PLACEMENT_3D('',#1128,#898,#899);
#801=AXIS2_PLACEMENT_3D('',#1130,#901,#902);
#802=AXIS2_PLACEMENT_3D('',#1133,#903,#904);
#803=AXIS2_PLACEMENT_3D('',#1135,#906,#907);
#804=AXIS2_PLACEMENT_3D('',#1253,#908,#909);
#805=AXIS2_PLACEMENT_3D('',#1259,#913,#914);
#806=AXIS2_PLACEMENT_3D('',#1261,#915,#916);
#807=AXIS2_PLACEMENT_3D('',#1265,#918,#919);
#808=AXIS2_PLACEMENT_3D('',#1269,#921,#922);
#809=AXIS2_PLACEMENT_3D('',#1271,#924,#925);
#810=AXIS2_PLACEMENT_3D('',#1273,#927,#928);
#811=AXIS2_PLACEMENT_3D('',#1276,#931,#932);
#812=AXIS2_PLACEMENT_3D('',#1279,#933,#934);
#813=AXIS2_PLACEMENT_3D('',#1283,#936,#937);
#814=AXIS2_PLACEMENT_3D('',#1402,#939,#940);
#815=AXIS2_PLACEMENT_3D('',#1404,#941,#942);
#816=AXIS2_PLACEMENT_3D('',#1407,#944,#945);
#817=AXIS2_PLACEMENT_3D('',#1408,#946,#947);
#818=AXIS2_PLACEMENT_3D('',#1412,#950,#951);
#819=AXIS2_PLACEMENT_3D('',#1415,#952,#953);
#820=AXIS2_PLACEMENT_3D('',#1419,#955,#956);
#821=AXIS2_PLACEMENT_3D('',#1421,#957,#958);
#822=AXIS2_PLACEMENT_3D('',#1423,#960,#961);
#823=AXIS2_PLACEMENT_3D('',#1429,#965,#966);
#824=AXIS2_PLACEMENT_3D('',#1432,#967,#968);
#825=AXIS2_PLACEMENT_3D('',#1434,#969,#970);
#826=AXIS2_PLACEMENT_3D('',#1436,#972,#973);
#827=AXIS2_PLACEMENT_3D('',#1439,#974,#975);
#828=AXIS2_PLACEMENT_3D('',#1443,#977,#978);
#829=AXIS2_PLACEMENT_3D('',#1447,#980,#981);
#830=AXIS2_PLACEMENT_3D('',#1453,#985,#986);
#831=AXIS2_PLACEMENT_3D('',#1457,#988,#989);
#832=AXIS2_PLACEMENT_3D('',#1462,#993,#994);
#833=AXIS2_PLACEMENT_3D('',#1464,#995,#996);
#834=AXIS2_PLACEMENT_3D('',#1466,#997,#998);
#835=AXIS2_PLACEMENT_3D('',#1468,#999,#1000);
#836=AXIS2_PLACEMENT_3D('',#1469,#1001,#1002);
#837=AXIS2_PLACEMENT_3D('',#1472,#1003,#1004);
#838=AXIS2_PLACEMENT_3D('',#1475,#1007,#1008);
#839=AXIS2_PLACEMENT_3D('',#1477,#1010,#1011);
#840=AXIS2_PLACEMENT_3D('',#1479,#1012,#1013);
#841=AXIS2_PLACEMENT_3D('',#1483,#1016,#1017);
#842=AXIS2_PLACEMENT_3D('',#1484,#1018,#1019);
#843=AXIS2_PLACEMENT_3D('',#1488,#1022,#1023);
#844=AXIS2_PLACEMENT_3D('',#1491,#1025,#1026);
#845=AXIS2_PLACEMENT_3D('',#1492,#1027,#1028);
#846=AXIS2_PLACEMENT_3D('',#1494,#1030,#1031);
#847=AXIS2_PLACEMENT_3D('',#1500,#1035,#1036);
#848=AXIS2_PLACEMENT_3D('',#1502,#1037,#1038);
#849=AXIS2_PLACEMENT_3D('',#1504,#1040,#1041);
#850=AXIS2_PLACEMENT_3D('',#1506,#1043,#1044);
#851=AXIS2_PLACEMENT_3D('',#1508,#1045,#1046);
#852=AXIS2_PLACEMENT_3D('',#1510,#1048,#1049);
#853=AXIS2_PLACEMENT_3D('',#1512,#1050,#1051);
#854=AXIS2_PLACEMENT_3D('',#1514,#1053,#1054);
#855=AXIS2_PLACEMENT_3D('',#1516,#1055,#1056);
#856=AXIS2_PLACEMENT_3D('',#1518,#1058,#1059);
#857=AXIS2_PLACEMENT_3D('',#1520,#1060,#1061);
#858=AXIS2_PLACEMENT_3D('',#1522,#1063,#1064);
#859=AXIS2_PLACEMENT_3D('',#1524,#1066,#1067);
#860=AXIS2_PLACEMENT_3D('',#1526,#1069,#1070);
#861=AXIS2_PLACEMENT_3D('',#1530,#1073,#1074);
#862=AXIS2_PLACEMENT_3D('',#1531,#1075,#1076);
#863=AXIS2_PLACEMENT_3D('',#1532,#1077,#1078);
#864=AXIS2_PLACEMENT_3D('',#1534,#1080,#1081);
#865=AXIS2_PLACEMENT_3D('',#1540,#1085,#1086);
#866=AXIS2_PLACEMENT_3D('',#1543,#1089,#1090);
#867=AXIS2_PLACEMENT_3D('',#1545,#1092,#1093);
#868=AXIS2_PLACEMENT_3D('',#1546,#1094,#1095);
#869=DIRECTION('axis',(0.,0.,1.));
#870=DIRECTION('refdir',(1.,0.,0.));
#871=DIRECTION('center_axis',(0.985255774317391,0.,0.171087869746039));
#872=DIRECTION('ref_axis',(0.,1.,0.));
#873=DIRECTION('center_axis',(0.984807753012208,-0.173648177666931,1.50002264642741E-17));
#874=DIRECTION('ref_axis',(0.122787803968972,0.696364240320014,0.707106781186552));
#875=DIRECTION('',(-0.985255774317391,0.,-0.171087869746039));
#876=DIRECTION('center_axis',(-1.,0.,0.));
#877=DIRECTION('ref_axis',(0.,0.,1.));
#878=DIRECTION('',(0.985255774317391,0.,0.171087869746039));
#879=DIRECTION('center_axis',(1.,0.,0.));
#880=DIRECTION('ref_axis',(0.,0.,1.));
#881=DIRECTION('center_axis',(-0.984807753012208,0.173648177666931,0.));
#882=DIRECTION('ref_axis',(-0.122787803968971,-0.696364240320006,0.70710678118656));
#883=DIRECTION('center_axis',(-1.,0.,0.));
#884=DIRECTION('ref_axis',(0.,-1.,-2.06618502467432E-15));
#885=DIRECTION('',(-0.984807753012208,0.173648177666931,0.));
#886=DIRECTION('center_axis',(-0.984807753012208,0.173648177666931,-4.06470994104092E-18));
#887=DIRECTION('ref_axis',(-0.122787803968971,-0.696364240320006,0.70710678118656));
#888=DIRECTION('center_axis',(0.,-1.,0.));
#889=DIRECTION('ref_axis',(1.,0.,0.));
#890=DIRECTION('',(0.,0.,1.));
#891=DIRECTION('',(1.,0.,0.));
#892=DIRECTION('',(0.,0.,1.));
#893=DIRECTION('center_axis',(0.985255774317392,0.,-0.171087869746035));
#894=DIRECTION('ref_axis',(0.15756645908864,-0.389638139611583,0.907389073733143));
#895=DIRECTION('center_axis',(0.985255774317392,0.,-0.171087869746037));
#896=DIRECTION('ref_axis',(0.122787803968975,0.696364240320014,0.707106781186552));
#897=DIRECTION('',(-0.985255774317392,0.,0.171087869746035));
#898=DIRECTION('center_axis',(-0.985255774317392,0.,0.171087869746037));
#899=DIRECTION('ref_axis',(0.,-1.,0.));
#900=DIRECTION('',(0.985255774317392,0.,-0.171087869746035));
#901=DIRECTION('center_axis',(0.985255774317392,0.,-0.171087869746035));
#902=DIRECTION('ref_axis',(0.15756645908864,-0.389638139611583,0.907389073733143));
#903=DIRECTION('center_axis',(-0.984807753012208,0.173648177666931,-1.50002264642741E-17));
#904=DIRECTION('ref_axis',(-0.122787803968974,-0.696364240320023,0.707106781186543));
#905=DIRECTION('',(0.985255774317392,0.,-0.171087869746035));
#906=DIRECTION('center_axis',(-1.,0.,0.));
#907=DIRECTION('ref_axis',(0.,2.78021134972147E-15,1.));
#908=DIRECTION('center_axis',(0.,1.,0.));
#909=DIRECTION('ref_axis',(-1.,0.,0.));
#910=DIRECTION('',(0.,0.,1.));
#911=DIRECTION('',(-1.,0.,0.));
#912=DIRECTION('',(0.,0.,1.));
#913=DIRECTION('center_axis',(-0.984807753012208,0.173648177666931,0.));
#914=DIRECTION('ref_axis',(0.122787803968974,0.696364240320022,0.707106781186544));
#915=DIRECTION('center_axis',(1.,0.,0.));
#916=DIRECTION('ref_axis',(0.,1.,1.36310817600044E-15));
#917=DIRECTION('',(-0.984807753012208,0.173648177666931,0.));
#918=DIRECTION('center_axis',(-0.984807753012208,0.173648177666931,4.62592926927335E-18));
#919=DIRECTION('ref_axis',(0.122787803968974,0.696364240320022,0.707106781186544));
#920=DIRECTION('',(-0.984807753012208,0.173648177666931,0.));
#921=DIRECTION('center_axis',(-0.984807753012208,0.173648177666931,4.62592926927335E-18));
#922=DIRECTION('ref_axis',(0.122787803968974,0.696364240320022,0.707106781186544));
#923=DIRECTION('',(-0.984807753012208,0.173648177666931,0.));
#924=DIRECTION('center_axis',(-0.122787803968973,-0.696364240320017,-0.70710678118655));
#925=DIRECTION('ref_axis',(-0.122787803968974,-0.696364240320021,0.707106781186545));
#926=DIRECTION('',(-0.122787803968974,-0.696364240320021,0.707106781186545));
#927=DIRECTION('center_axis',(-0.122787803968973,-0.696364240320017,-0.70710678118655));
#928=DIRECTION('ref_axis',(-0.122787803968974,-0.696364240320021,0.707106781186545));
#929=DIRECTION('',(0.,0.712498293208672,-0.701673843159861));
#930=DIRECTION('',(-0.122787803968974,-0.696364240320021,0.707106781186545));
#931=DIRECTION('center_axis',(-0.985255774317391,0.,-0.171087869746039));
#932=DIRECTION('ref_axis',(0.157566459088649,-0.389638139611607,-0.907389073733132));
#933=DIRECTION('center_axis',(0.985255774317391,0.,0.171087869746042));
#934=DIRECTION('ref_axis',(0.,-1.,0.));
#935=DIRECTION('',(-0.985255774317391,-9.66399516411122E-18,-0.171087869746039));
#936=DIRECTION('center_axis',(-0.985255774317392,0.,-0.171087869746038));
#937=DIRECTION('ref_axis',(0.122787803968974,0.696364240320026,-0.70710678118654));
#938=DIRECTION('',(0.985255774317391,0.,0.171087869746039));
#939=DIRECTION('center_axis',(-0.985255774317391,0.,-0.171087869746039));
#940=DIRECTION('ref_axis',(0.157566459088649,-0.389638139611607,-0.907389073733132));
#941=DIRECTION('center_axis',(-1.,0.,0.));
#942=DIRECTION('ref_axis',(0.,-4.64887799461623E-15,-1.));
#943=DIRECTION('',(-0.985255774317391,-9.66399516411122E-18,-0.171087869746039));
#944=DIRECTION('center_axis',(-0.984807753012208,0.173648177666931,-1.50002264642741E-17));
#945=DIRECTION('ref_axis',(-0.122787803968972,-0.696364240320013,-0.707106781186554));
#946=DIRECTION('center_axis',(-0.122787803968974,-0.696364240320025,0.707106781186541));
#947=DIRECTION('ref_axis',(0.122787803968969,0.696364240320013,0.707106781186554));
#948=DIRECTION('',(-0.984807753012208,0.173648177666931,0.));
#949=DIRECTION('',(0.122787803968969,0.696364240320013,0.707106781186554));
#950=DIRECTION('center_axis',(-0.985255774317392,0.,0.171087869746035));
#951=DIRECTION('ref_axis',(0.,1.,0.));
#952=DIRECTION('center_axis',(-1.,0.,0.));
#953=DIRECTION('ref_axis',(0.,0.,-1.));
#954=DIRECTION('',(0.985255774317392,0.,-0.171087869746035));
#955=DIRECTION('center_axis',(0.984807753012208,-0.173648177666931,1.50002264642741E-17));
#956=DIRECTION('ref_axis',(0.122787803968974,0.696364240320022,-0.707106781186545));
#957=DIRECTION('center_axis',(1.,0.,0.));
#958=DIRECTION('ref_axis',(0.,0.,-1.));
#959=DIRECTION('',(-0.985255774317392,0.,0.171087869746035));
#960=DIRECTION('center_axis',(0.,-1.,0.));
#961=DIRECTION('ref_axis',(1.,0.,0.));
#962=DIRECTION('',(0.,0.,1.));
#963=DIRECTION('',(1.,0.,0.));
#964=DIRECTION('',(0.,0.,1.));
#965=DIRECTION('center_axis',(-0.984807753012208,0.173648177666931,0.));
#966=DIRECTION('ref_axis',(0.122787803968971,0.696364240320007,-0.70710678118656));
#967=DIRECTION('center_axis',(1.,0.,0.));
#968=DIRECTION('ref_axis',(0.,1.,4.39064317743294E-15));
#969=DIRECTION('center_axis',(-0.984807753012208,0.173648177666931,-4.06470994104093E-18));
#970=DIRECTION('ref_axis',(0.122787803968971,0.696364240320007,-0.70710678118656));
#971=DIRECTION('',(-0.984807753012208,0.173648177666931,0.));
#972=DIRECTION('center_axis',(-0.984807753012208,0.173648177666931,-1.50002264642741E-17));
#973=DIRECTION('ref_axis',(-1.4772339318956E-17,2.60476199011268E-18,1.));
#974=DIRECTION('center_axis',(-0.984807753012208,0.173648177666931,-1.50002264642739E-17));
#975=DIRECTION('ref_axis',(-0.122787803968974,-0.696364240320021,-0.707106781186546));
#976=DIRECTION('',(-0.122787803968974,-0.696364240320023,0.707106781186544));
#977=DIRECTION('center_axis',(-0.984807753012208,0.173648177666931,-2.65650496374538E-17));
#978=DIRECTION('ref_axis',(0.122787803968974,0.696364240320022,0.707106781186544));
#979=DIRECTION('',(0.12278780396897,0.696364240320017,0.70710678118655));
#980=DIRECTION('center_axis',(-0.984807753012209,0.173648177666928,3.35922980177407E-15));
#981=DIRECTION('ref_axis',(0.122787803968969,0.69636424032002,-0.707106781186548));
#982=DIRECTION('',(-0.122787803968975,-0.696364240320013,-0.707106781186554));
#983=DIRECTION('',(0.,-8.63828614029312E-17,-1.));
#984=DIRECTION('',(0.122787803968977,0.696364240320022,-0.707106781186544));
#985=DIRECTION('center_axis',(-0.984807753012208,0.173648177666931,-2.36908656745877E-17));
#986=DIRECTION('ref_axis',(-0.122787803968973,-0.696364240320017,-0.70710678118655));
#987=DIRECTION('',(-0.122787803968976,-0.696364240320018,-0.707106781186548));
#988=DIRECTION('center_axis',(-0.984807753012208,0.173648177666931,5.26346584295504E-17));
#989=DIRECTION('ref_axis',(-0.122787803968974,-0.696364240320022,0.707106781186545));
#990=DIRECTION('',(0.122787803968969,0.696364240320013,0.707106781186554));
#991=DIRECTION('',(0.,-8.63828614029312E-17,-1.));
#992=DIRECTION('',(0.122787803968974,0.696364240320022,-0.707106781186545));
#993=DIRECTION('center_axis',(0.984807753012208,-0.173648177666931,4.0647099410408E-18));
#994=DIRECTION('ref_axis',(-4.0029578636835E-18,7.05829474006748E-19,1.));
#995=DIRECTION('center_axis',(0.984807753012208,-0.173648177666931,4.0647099410408E-18));
#996=DIRECTION('ref_axis',(-4.0029578636835E-18,7.05829474006748E-19,1.));
#997=DIRECTION('center_axis',(0.984807753012208,-0.173648177666931,4.0647099410408E-18));
#998=DIRECTION('ref_axis',(-4.0029578636828E-18,7.05829474006624E-19,1.));
#999=DIRECTION('center_axis',(0.984807753012208,-0.173648177666931,4.0647099410408E-18));
#1000=DIRECTION('ref_axis',(-4.0029578636835E-18,7.05829474006748E-19,1.));
#1001=DIRECTION('center_axis',(-0.984807753012208,0.173648177666931,0.));
#1002=DIRECTION('ref_axis',(-0.122787803968974,-0.696364240320021,-0.707106781186546));
#1003=DIRECTION('center_axis',(-1.,0.,0.));
#1004=DIRECTION('ref_axis',(0.,-1.,-5.02197749052795E-16));
#1005=DIRECTION('',(-0.984807753012208,0.173648177666931,0.));
#1006=DIRECTION('',(-0.984807753012208,0.173648177666931,0.));
#1007=DIRECTION('center_axis',(0.122787803968973,0.696364240320016,0.70710678118655));
#1008=DIRECTION('ref_axis',(0.122787803968974,0.696364240320022,-0.707106781186545));
#1009=DIRECTION('',(0.,0.712498293208673,-0.70167384315986));
#1010=DIRECTION('center_axis',(-0.984807753012208,0.173648177666931,0.));
#1011=DIRECTION('ref_axis',(-0.122787803968974,-0.696364240320022,0.707106781186545));
#1012=DIRECTION('center_axis',(1.,0.,0.));
#1013=DIRECTION('ref_axis',(0.,-1.,-1.14788056926353E-15));
#1014=DIRECTION('',(-0.984807753012208,0.173648177666931,0.));
#1015=DIRECTION('',(-0.984807753012208,0.173648177666931,0.));
#1016=DIRECTION('center_axis',(-0.984807753012208,0.173648177666931,5.26346584295504E-17));
#1017=DIRECTION('ref_axis',(-0.122787803968974,-0.696364240320022,0.707106781186545));
#1018=DIRECTION('center_axis',(0.122787803968973,0.69636424032002,-0.707106781186547));
#1019=DIRECTION('ref_axis',(-0.122787803968976,-0.696364240320018,-0.707106781186548));
#1020=DIRECTION('',(-0.984807753012208,0.173648177666931,0.));
#1021=DIRECTION('',(-0.122787803968976,-0.696364240320018,-0.707106781186548));
#1022=DIRECTION('center_axis',(-0.984807753012208,0.173648177666931,0.));
#1023=DIRECTION('ref_axis',(-0.122787803968973,-0.696364240320017,-0.70710678118655));
#1024=DIRECTION('',(-0.984807753012208,0.173648177666931,0.));
#1025=DIRECTION('center_axis',(0.984807753012208,-0.173648177666931,2.36908656745877E-17));
#1026=DIRECTION('ref_axis',(-0.122787803968973,-0.696364240320017,-0.70710678118655));
#1027=DIRECTION('center_axis',(0.122787803968973,0.696364240320016,0.707106781186551));
#1028=DIRECTION('ref_axis',(0.122787803968977,0.696364240320022,-0.707106781186544));
#1029=DIRECTION('',(0.122787803968977,0.696364240320022,-0.707106781186544));
#1030=DIRECTION('center_axis',(-0.122787803968974,-0.696364240320021,0.707106781186545));
#1031=DIRECTION('ref_axis',(0.12278780396897,0.696364240320017,0.70710678118655));
#1032=DIRECTION('',(0.,0.712498293208668,0.701673843159865));
#1033=DIRECTION('',(-0.984807753012208,0.173648177666931,0.));
#1034=DIRECTION('',(-0.984807753012208,0.173648177666931,0.));
#1035=DIRECTION('center_axis',(-0.984807753012208,0.173648177666931,0.));
#1036=DIRECTION('ref_axis',(0.122787803968974,0.696364240320022,0.707106781186544));
#1037=DIRECTION('center_axis',(1.,0.,0.));
#1038=DIRECTION('ref_axis',(0.,1.,-2.4966402381482E-15));
#1039=DIRECTION('',(-0.984807753012208,0.173648177666931,0.));
#1040=DIRECTION('center_axis',(-0.122787803968973,-0.696364240320015,-0.707106781186551));
#1041=DIRECTION('ref_axis',(-0.122787803968974,-0.696364240320023,0.707106781186544));
#1042=DIRECTION('',(0.,-0.712498293208674,0.701673843159859));
#1043=DIRECTION('center_axis',(-0.984807753012208,0.173648177666931,0.));
#1044=DIRECTION('ref_axis',(3.88218949419795E-32,2.18979751157103E-31,1.));
#1045=DIRECTION('center_axis',(0.984807753012208,-0.173648177666931,4.0647099410408E-18));
#1046=DIRECTION('ref_axis',(-4.0029578636835E-18,7.05829474006748E-19,1.));
#1047=DIRECTION('',(0.984807753012208,-0.173648177666931,0.));
#1048=DIRECTION('center_axis',(-0.984807753012208,0.173648177666931,0.));
#1049=DIRECTION('ref_axis',(3.88218949419795E-32,2.18979751157103E-31,1.));
#1050=DIRECTION('center_axis',(0.984807753012208,-0.173648177666931,4.0647099410408E-18));
#1051=DIRECTION('ref_axis',(-4.0029578636835E-18,7.05829474006748E-19,1.));
#1052=DIRECTION('',(0.984807753012208,-0.173648177666931,0.));
#1053=DIRECTION('center_axis',(-0.984807753012208,0.173648177666931,0.));
#1054=DIRECTION('ref_axis',(3.94284870504479E-32,2.18676455102869E-31,1.));
#1055=DIRECTION('center_axis',(1.,0.,0.));
#1056=DIRECTION('ref_axis',(0.,1.,-2.18825221547382E-31));
#1057=DIRECTION('',(0.984807753012208,-0.173648177666931,0.));
#1058=DIRECTION('center_axis',(-0.984807753012208,0.173648177666931,0.));
#1059=DIRECTION('ref_axis',(3.88218949419795E-32,2.18979751157103E-31,1.));
#1060=DIRECTION('center_axis',(1.,0.,0.));
#1061=DIRECTION('ref_axis',(0.,1.,-2.19015638746599E-31));
#1062=DIRECTION('',(0.984807753012208,-0.173648177666931,0.));
#1063=DIRECTION('center_axis',(-0.122787803968974,-0.696364240320025,0.707106781186541));
#1064=DIRECTION('ref_axis',(0.122787803968969,0.696364240320013,0.707106781186554));
#1065=DIRECTION('',(0.,-0.712498293208664,-0.701673843159869));
#1066=DIRECTION('center_axis',(-0.984807753012208,0.173648177666931,-1.50002264642741E-17));
#1067=DIRECTION('ref_axis',(-1.4772339318956E-17,2.60476199011268E-18,1.));
#1068=DIRECTION('',(0.,-8.63828614029311E-17,-1.));
#1069=DIRECTION('center_axis',(0.122787803968974,0.696364240320025,-0.707106781186542));
#1070=DIRECTION('ref_axis',(-0.122787803968975,-0.696364240320013,-0.707106781186554));
#1071=DIRECTION('',(-0.984807753012208,0.173648177666931,0.));
#1072=DIRECTION('',(0.,-0.712498293208664,-0.701673843159869));
#1073=DIRECTION('center_axis',(-0.984807753012208,0.173648177666931,0.));
#1074=DIRECTION('ref_axis',(0.122787803968973,0.696364240320019,-0.707106781186548));
#1075=DIRECTION('center_axis',(-1.,0.,0.));
#1076=DIRECTION('ref_axis',(0.,1.,2.65447381642193E-15));
#1077=DIRECTION('center_axis',(1.,0.,0.));
#1078=DIRECTION('ref_axis',(0.,1.,0.));
#1079=DIRECTION('',(0.,1.,0.));
#1080=DIRECTION('center_axis',(0.,1.,0.));
#1081=DIRECTION('ref_axis',(-1.,0.,0.));
#1082=DIRECTION('',(0.,0.,1.));
#1083=DIRECTION('',(-1.,0.,0.));
#1084=DIRECTION('',(0.,0.,1.));
#1085=DIRECTION('center_axis',(0.,0.,-1.));
#1086=DIRECTION('ref_axis',(-1.,0.,0.));
#1087=DIRECTION('',(0.,-1.,0.));
#1088=DIRECTION('',(0.,1.,0.));
#1089=DIRECTION('center_axis',(-1.,0.,0.));
#1090=DIRECTION('ref_axis',(0.,-1.,0.));
#1091=DIRECTION('',(0.,-1.,0.));
#1092=DIRECTION('center_axis',(1.,0.,0.));
#1093=DIRECTION('ref_axis',(0.,1.,0.));
#1094=DIRECTION('center_axis',(0.,0.,1.));
#1095=DIRECTION('ref_axis',(1.,0.,0.));
#1096=CARTESIAN_POINT('',(0.,0.,0.));
#1097=CARTESIAN_POINT('Origin',(69.1274498676304,-17.7246433122228,-493.541399129379));
#1098=CARTESIAN_POINT('',(84.5962482802176,-19.8137360331828,-488.669984495579));
#1099=CARTESIAN_POINT('',(85.0275000995126,-17.3679854307379,-487.757084418739));
#1100=CARTESIAN_POINT('Origin',(84.9646116921245,-17.7246433122228,-490.791304839139));
#1101=CARTESIAN_POINT('',(79.0275000995126,-19.8137360331828,-489.636987469045));
#1102=CARTESIAN_POINT('',(68.7590864557234,-19.8137360331828,-491.420078785819));
#1103=CARTESIAN_POINT('',(79.0275000995126,-14.7246433122228,-491.822273447801));
#1104=CARTESIAN_POINT('Origin',(79.0275000995126,-17.7246433122228,-491.822273447801));
#1105=CARTESIAN_POINT('',(85.0275000995126,-14.7246433122228,-490.7803843818));
#1106=CARTESIAN_POINT('',(69.1274498676304,-14.7246433122228,-493.541399129379));
#1107=CARTESIAN_POINT('Origin',(85.0275000995126,-17.7246433122228,-490.7803843818));
#1108=CARTESIAN_POINT('Origin',(85.6997704547471,-13.5553507872285,-491.295309690474));
#1109=CARTESIAN_POINT('',(85.0275000995126,-17.3679854307379,-486.261983787595));
#1110=CARTESIAN_POINT('',(85.0275000995126,-8.87741586182842,-486.805181629939));
#1111=CARTESIAN_POINT('Origin',(85.0275000995126,-13.4368113852702,-491.295309690474));
#1112=CARTESIAN_POINT('',(86.4794730099501,-9.13343786119635,-486.805181629939));
#1113=CARTESIAN_POINT('',(86.4794730099501,-9.13343786119635,-486.805181629939));
#1114=CARTESIAN_POINT('Origin',(85.6997704547471,-13.5553507872285,-491.295309690474));
#1115=CARTESIAN_POINT('Origin',(79.0275000995126,-14.7246433122228,-550.55351618638));
#1116=CARTESIAN_POINT('',(79.0275000995126,-14.7246433122228,-550.55351618638));
#1117=CARTESIAN_POINT('',(79.0275000995126,-14.7246433122228,-550.55351618638));
#1118=CARTESIAN_POINT('',(85.0275000995126,-14.7246433122228,-550.55351618638));
#1119=CARTESIAN_POINT('',(79.0275000995126,-14.7246433122228,-550.55351618638));
#1120=CARTESIAN_POINT('',(85.0275000995126,-14.7246433122228,-550.55351618638));
#1121=CARTESIAN_POINT('Origin',(90.6234586905807,-5.72464331222275,-495.124425179033));
#1122=CARTESIAN_POINT('',(81.1570218302094,-3.6355505912627,-491.295309690474));
#1123=CARTESIAN_POINT('',(80.7886584183025,-8.72464331222275,-493.416630034033));
#1124=CARTESIAN_POINT('Origin',(80.7886584183025,-5.72464331222275,-493.416630034033));
#1125=CARTESIAN_POINT('',(79.0275000995126,-8.72464331222275,-493.110808101392));
#1126=CARTESIAN_POINT('',(90.6234586905807,-8.72464331222275,-495.124425179033));
#1127=CARTESIAN_POINT('',(79.3958635114195,-3.63555059126269,-490.989487757833));
#1128=CARTESIAN_POINT('Origin',(79.0275000995126,-5.72464331222275,-493.110808101392));
#1129=CARTESIAN_POINT('',(90.9918221024877,-3.63555059126269,-493.003104835473));
#1130=CARTESIAN_POINT('Origin',(90.6234586905807,-5.72464331222275,-495.124425179033));
#1131=CARTESIAN_POINT('',(79.325485977447,-3.63555059126269,-490.97726682731));
#1132=CARTESIAN_POINT('',(79.0275000995126,-5.32551248329505,-490.092982039188));
#1133=CARTESIAN_POINT('Origin',(78.9571225655401,-5.72464331222275,-493.098587170869));
#1134=CARTESIAN_POINT('',(90.9918221024877,-3.63555059126269,-493.003104835473));
#1135=CARTESIAN_POINT('Origin',(79.0275000995126,-5.72464331222275,-493.110808101392));
#1136=CARTESIAN_POINT('Ctrl Pts',(80.7886584183025,-8.72464331222275,-493.416630034033));
#1137=CARTESIAN_POINT('Ctrl Pts',(82.1962904607207,-8.72464331222275,-493.661062773025));
#1138=CARTESIAN_POINT('Ctrl Pts',(83.6101959609926,-8.72464331222275,-493.870114890467));
#1139=CARTESIAN_POINT('Ctrl Pts',(85.0275000995126,-8.72464331222275,-494.054228945437));
#1140=CARTESIAN_POINT('Ctrl Pts',(80.9030974010797,-8.72464331222275,-492.757602197895));
#1141=CARTESIAN_POINT('Ctrl Pts',(82.2970885685547,-8.72434609144605,-493.013824272983));
#1142=CARTESIAN_POINT('Ctrl Pts',(83.7003307504114,-8.72485175356155,-493.234859043387));
#1143=CARTESIAN_POINT('Ctrl Pts',(85.1085385735581,-8.72464331222275,-493.430397350057));
#1144=CARTESIAN_POINT('Ctrl Pts',(81.1317164239235,-8.25894297398533,-491.441037717257));
#1145=CARTESIAN_POINT('Ctrl Pts',(82.4983185805676,-8.27935358946579,-491.721091624433));
#1146=CARTESIAN_POINT('Ctrl Pts',(83.8805252019843,-8.29770614808912,-491.965197875092));
#1147=CARTESIAN_POINT('Ctrl Pts',(85.2704774055031,-8.31471227412755,-492.183797372996));
#1148=CARTESIAN_POINT('Ctrl Pts',(81.2937100015757,-6.76980685063563,-490.508153883815));
#1149=CARTESIAN_POINT('Ctrl Pts',(82.645932351783,-6.84483172799704,-490.776166278525));
#1150=CARTESIAN_POINT('Ctrl Pts',(84.0160868298879,-6.91351127794324,-491.011971666466));
#1151=CARTESIAN_POINT('Ctrl Pts',(85.3950249249952,-6.97805072179557,-491.225034529786));
#1152=CARTESIAN_POINT('Ctrl Pts',(81.3124682850815,-5.07562830207862,-490.400129234447));
#1153=CARTESIAN_POINT('Ctrl Pts',(82.6717211150416,-5.19095725808865,-490.616961254506));
#1154=CARTESIAN_POINT('Ctrl Pts',(84.045427984756,-5.29938904951457,-490.808779564175));
#1155=CARTESIAN_POINT('Ctrl Pts',(85.4266027782286,-5.40333798066516,-490.981949220081));
#1156=CARTESIAN_POINT('Ctrl Pts',(81.236713045514,-4.11560535457035,-490.836386272012));
#1157=CARTESIAN_POINT('Ctrl Pts',(82.6118970936129,-4.23480147665033,-491.00513593557));
#1158=CARTESIAN_POINT('Ctrl Pts',(83.9972526861703,-4.34968690296914,-491.151673122205));
#1159=CARTESIAN_POINT('Ctrl Pts',(85.387362812344,-4.46283549442781,-491.284017229244));
#1160=CARTESIAN_POINT('Ctrl Pts',(81.1570218302094,-3.63555059126272,-491.295309690474));
#1161=CARTESIAN_POINT('Ctrl Pts',(82.5459555027209,-3.74159431657058,-491.432062808764));
#1162=CARTESIAN_POINT('Ctrl Pts',(83.9410792992092,-3.84811065178022,-491.549021482399));
#1163=CARTESIAN_POINT('Ctrl Pts',(85.3395565879179,-3.95488302283588,-491.652028024167));
#1164=CARTESIAN_POINT('',(85.0275000995126,-3.93105781563419,-491.628799982523));
#1165=CARTESIAN_POINT('',(85.0275000995126,-8.72464331222275,-494.054228945437));
#1166=CARTESIAN_POINT('Ctrl Pts',(85.0274983802598,-3.93105768437093,-491.628804752577));
#1167=CARTESIAN_POINT('Ctrl Pts',(85.0275006798094,-4.01066144095487,-491.568900407723));
#1168=CARTESIAN_POINT('Ctrl Pts',(85.0274758559725,-4.09310490709439,-491.513316291243));
#1169=CARTESIAN_POINT('Ctrl Pts',(85.0274419173719,-4.17800662126377,-491.462078256328));
#1170=CARTESIAN_POINT('Ctrl Pts',(85.027407525486,-4.26404228591986,-491.410155884292));
#1171=CARTESIAN_POINT('Ctrl Pts',(85.0273638072931,-4.3526030437591,-491.362696182056));
#1172=CARTESIAN_POINT('Ctrl Pts',(85.027324266651,-4.44332340433461,-491.31977024494));
#1173=CARTESIAN_POINT('Ctrl Pts',(85.0272845714305,-4.5343984227958,-491.276676495196));
#1174=CARTESIAN_POINT('Ctrl Pts',(85.0272491133813,-4.62765077442103,-491.238151792615));
#1175=CARTESIAN_POINT('Ctrl Pts',(85.0272258681434,-4.722730343384,-491.204316106176));
#1176=CARTESIAN_POINT('Ctrl Pts',(85.0272052305857,-4.80714376608197,-491.174276149822));
#1177=CARTESIAN_POINT('Ctrl Pts',(85.0271941512149,-4.89299809923044,-491.147932744778));
#1178=CARTESIAN_POINT('Ctrl Pts',(85.027194221923,-4.98005342896181,-491.125403681117));
#1179=CARTESIAN_POINT('Ctrl Pts',(85.0271943018152,-5.07841628878796,-491.09994833981));
#1180=CARTESIAN_POINT('Ctrl Pts',(85.0272095617714,-5.17780182071444,-491.079493921097));
#1181=CARTESIAN_POINT('Ctrl Pts',(85.0272333008088,-5.27783717165389,-491.064103827813));
#1182=CARTESIAN_POINT('Ctrl Pts',(85.0272570795266,-5.37803973418416,-491.048688009604));
#1183=CARTESIAN_POINT('Ctrl Pts',(85.0272893906772,-5.47889514465261,-491.038353256446));
#1184=CARTESIAN_POINT('Ctrl Pts',(85.0273179980405,-5.58004315517625,-491.03321272522));
#1185=CARTESIAN_POINT('Ctrl Pts',(85.0273285634256,-5.61739954021037,-491.031314203808));
#1186=CARTESIAN_POINT('Ctrl Pts',(85.0273385677836,-5.65479591330358,-491.030124675576));
#1187=CARTESIAN_POINT('Ctrl Pts',(85.027347194853,-5.69221426707883,-491.029651630271));
#1188=CARTESIAN_POINT('Ctrl Pts',(85.0273703631424,-5.7927025334679,-491.028381250957));
#1189=CARTESIAN_POINT('Ctrl Pts',(85.0273840022735,-5.89335002519349,-491.032274579603));
#1190=CARTESIAN_POINT('Ctrl Pts',(85.0273947814602,-5.99374622497,-491.041312728237));
#1191=CARTESIAN_POINT('Ctrl Pts',(85.0273997560412,-6.04007894395778,-491.04548382238));
#1192=CARTESIAN_POINT('Ctrl Pts',(85.0274040428049,-6.0863580154299,-491.050751373368));
#1193=CARTESIAN_POINT('Ctrl Pts',(85.0274078995381,-6.13254204612452,-491.057117113734));
#1194=CARTESIAN_POINT('Ctrl Pts',(85.0274162955003,-6.23308293164128,-491.070975089398));
#1195=CARTESIAN_POINT('Ctrl Pts',(85.0274224823621,-6.33265284687345,-491.089962337542));
#1196=CARTESIAN_POINT('Ctrl Pts',(85.0274212638271,-6.43084464099043,-491.113973859869));
#1197=CARTESIAN_POINT('Ctrl Pts',(85.0274204400265,-6.4972280145668,-491.130207047898));
#1198=CARTESIAN_POINT('Ctrl Pts',(85.0274161053577,-6.56298173048218,-491.148737713668));
#1199=CARTESIAN_POINT('Ctrl Pts',(85.0274051277011,-6.62797960621452,-491.169546782986));
#1200=CARTESIAN_POINT('Ctrl Pts',(85.0273889205859,-6.72394071155215,-491.200268729979));
#1201=CARTESIAN_POINT('Ctrl Pts',(85.0273584964856,-6.81825546978901,-491.235954672898));
#1202=CARTESIAN_POINT('Ctrl Pts',(85.027328866481,-6.91062575240776,-491.276360709732));
#1203=CARTESIAN_POINT('Ctrl Pts',(85.0272990376685,-7.00361581009803,-491.317037858157));
#1204=CARTESIAN_POINT('Ctrl Pts',(85.0272699594656,-7.09463596984824,-491.362499106466));
#1205=CARTESIAN_POINT('Ctrl Pts',(85.0272515732139,-7.18335755000473,-491.41254144851));
#1206=CARTESIAN_POINT('Ctrl Pts',(85.0272489236866,-7.19614266031058,-491.419752736472));
#1207=CARTESIAN_POINT('Ctrl Pts',(85.0272464879578,-7.20887998579702,-491.42705922526));
#1208=CARTESIAN_POINT('Ctrl Pts',(85.0272442877018,-7.22156848662475,-491.434460376504));
#1209=CARTESIAN_POINT('Ctrl Pts',(85.0272290134105,-7.30965271728799,-491.485839552199));
#1210=CARTESIAN_POINT('Ctrl Pts',(85.0272241675543,-7.39494103027808,-491.541517191496));
#1211=CARTESIAN_POINT('Ctrl Pts',(85.0272320528267,-7.47715098730771,-491.601206303664));
#1212=CARTESIAN_POINT('Ctrl Pts',(85.0272399831026,-7.55983013924622,-491.661236078065));
#1213=CARTESIAN_POINT('Ctrl Pts',(85.0272607324848,-7.63939645461812,-491.725323738225));
#1214=CARTESIAN_POINT('Ctrl Pts',(85.0272904691937,-7.71554070449657,-491.793225245292));
#1215=CARTESIAN_POINT('Ctrl Pts',(85.0273198374176,-7.79074140656781,-491.860285345186));
#1216=CARTESIAN_POINT('Ctrl Pts',(85.0273579009343,-7.86260498103302,-491.931065939953));
#1217=CARTESIAN_POINT('Ctrl Pts',(85.027395947527,-7.93080183464574,-492.005370322339));
#1218=CARTESIAN_POINT('Ctrl Pts',(85.0274275305055,-7.98741294243242,-492.067051370327));
#1219=CARTESIAN_POINT('Ctrl Pts',(85.0274589968183,-8.04149699498974,-492.131161429105));
#1220=CARTESIAN_POINT('Ctrl Pts',(85.0274831907016,-8.09284360911852,-492.197604295409));
#1221=CARTESIAN_POINT('Ctrl Pts',(85.0274917476851,-8.11100407227427,-492.22110405768));
#1222=CARTESIAN_POINT('Ctrl Pts',(85.0274992764335,-8.12879820193907,-492.244865088088));
#1223=CARTESIAN_POINT('Ctrl Pts',(85.0275054580788,-8.14621879422865,-492.268881333053));
#1224=CARTESIAN_POINT('Ctrl Pts',(85.0275263836579,-8.20518949905407,-492.350179079381));
#1225=CARTESIAN_POINT('Ctrl Pts',(85.0275322985513,-8.25988282591107,-492.434398478963));
#1226=CARTESIAN_POINT('Ctrl Pts',(85.0275328055803,-8.31024018335685,-492.521135462797));
#1227=CARTESIAN_POINT('Ctrl Pts',(85.0275333211698,-8.36144774829818,-492.609336868862));
#1228=CARTESIAN_POINT('Ctrl Pts',(85.0275281533302,-8.40817210064146,-492.700142338455));
#1229=CARTESIAN_POINT('Ctrl Pts',(85.0275224457353,-8.45030833510837,-492.793159099689));
#1230=CARTESIAN_POINT('Ctrl Pts',(85.0275168140553,-8.49188412832909,-492.884938673257));
#1231=CARTESIAN_POINT('Ctrl Pts',(85.0275105473047,-8.52899323726953,-492.978871963487));
#1232=CARTESIAN_POINT('Ctrl Pts',(85.0275053433667,-8.56148893949895,-493.074600412422));
#1233=CARTESIAN_POINT('Ctrl Pts',(85.0275000532228,-8.59452294938804,-493.171914651286));
#1234=CARTESIAN_POINT('Ctrl Pts',(85.0274953733792,-8.62265778665437,-493.270695882289));
#1235=CARTESIAN_POINT('Ctrl Pts',(85.0274933709356,-8.64580514454192,-493.37054385685));
#1236=CARTESIAN_POINT('Ctrl Pts',(85.0274913705133,-8.66892913809014,-493.470291047469));
#1237=CARTESIAN_POINT('Ctrl Pts',(85.0274919297335,-8.68707600006052,-493.571103694858));
#1238=CARTESIAN_POINT('Ctrl Pts',(85.027493748638,-8.70010917317604,-493.672600563392));
#1239=CARTESIAN_POINT('Ctrl Pts',(85.02749553411,-8.71290278947864,-493.77223186426));
#1240=CARTESIAN_POINT('Ctrl Pts',(85.0274984242643,-8.720769114041,-493.872523285216));
#1241=CARTESIAN_POINT('Ctrl Pts',(85.0274995972866,-8.72352929752754,-493.973118882238));
#1242=CARTESIAN_POINT('Ctrl Pts',(85.0274999123266,-8.724270603215,-494.000135958664));
#1243=CARTESIAN_POINT('Ctrl Pts',(85.0275000995126,-8.72464331222275,-494.027174963987));
#1244=CARTESIAN_POINT('Ctrl Pts',(85.0275000995126,-8.72464331222275,-494.054228945437));
#1245=CARTESIAN_POINT('Ctrl Pts',(85.0275000995126,-8.72464331222275,-494.054228945437));
#1246=CARTESIAN_POINT('Ctrl Pts',(83.6101959609926,-8.72464331222275,-493.870114890467));
#1247=CARTESIAN_POINT('Ctrl Pts',(82.1962904607207,-8.72464331222275,-493.661062773025));
#1248=CARTESIAN_POINT('Ctrl Pts',(80.7886584183025,-8.72464331222275,-493.416630034033));
#1249=CARTESIAN_POINT('Ctrl Pts',(81.1570218302094,-3.63555059126272,-491.295309690474));
#1250=CARTESIAN_POINT('Ctrl Pts',(82.4426274953174,-3.73370532442462,-491.421889229205));
#1251=CARTESIAN_POINT('Ctrl Pts',(83.7335365299493,-3.83226496465449,-491.531509938853));
#1252=CARTESIAN_POINT('Ctrl Pts',(85.0274994559885,-3.93105776650176,-491.628804833463));
#1253=CARTESIAN_POINT('Origin',(85.0275000995126,-8.72464331222275,-550.55351618638));
#1254=CARTESIAN_POINT('',(85.0275000995126,-8.72464331222275,-550.55351618638));
#1255=CARTESIAN_POINT('',(85.0275000995126,-8.72464331222275,-550.55351618638));
#1256=CARTESIAN_POINT('',(79.0275000995126,-8.72464331222275,-550.55351618638));
#1257=CARTESIAN_POINT('',(85.0275000995126,-8.72464331222275,-550.55351618638));
#1258=CARTESIAN_POINT('',(79.0275000995126,-8.72464331222275,-550.55351618638));
#1259=CARTESIAN_POINT('Origin',(87.7269970982749,-2.05837717954492,-488.601232854153));
#1260=CARTESIAN_POINT('',(85.0275000995126,-4.31802033838665,-491.295309690474));
#1261=CARTESIAN_POINT('Origin',(85.0275000995126,-1.5823830243216,-488.601232854153));
#1262=CARTESIAN_POINT('',(79.3807135410554,-3.32233951382875,-491.295309690474));
#1263=CARTESIAN_POINT('',(87.2591755651531,-4.71152493516419,-491.295309690474));
#1264=CARTESIAN_POINT('',(80.316356607299,1.98395599740983,-485.907156017832));
#1265=CARTESIAN_POINT('Origin',(79.8485350741772,-0.669191758209468,-488.601232854153));
#1266=CARTESIAN_POINT('',(88.1948186313966,0.594770576074382,-485.907156017832));
#1267=CARTESIAN_POINT('',(88.1948186313966,0.594770576074382,-485.907156017832));
#1268=CARTESIAN_POINT('',(87.2591755651531,-4.71152493516419,-491.295309690474));
#1269=CARTESIAN_POINT('Origin',(87.7269970982749,-2.05837717954492,-488.601232854153));
#1270=CARTESIAN_POINT('',(87.2591755651531,-4.71152493516419,-491.295309690474));
#1271=CARTESIAN_POINT('Origin',(87.2591755651531,-4.71152493516419,-491.295309690474));
#1272=CARTESIAN_POINT('',(79.3807135410554,-3.32233951382874,-491.295309690474));
#1273=CARTESIAN_POINT('Origin',(87.2591755651531,-4.71152493516419,-491.295309690474));
#1274=CARTESIAN_POINT('',(85.0275000995126,7.7534324864448,-503.183370022489));
#1275=CARTESIAN_POINT('',(87.2591755651531,-4.71152493516419,-491.295309690474));
#1276=CARTESIAN_POINT('Origin',(77.4556853393521,-5.72464331222275,-461.015934460865));
#1277=CARTESIAN_POINT('',(80.7886584183019,-8.72464331222275,-460.437169759493));
#1278=CARTESIAN_POINT('',(81.1570218302089,-3.63555059126269,-462.558490103052));
#1279=CARTESIAN_POINT('Origin',(80.7886584183019,-5.72464331222275,-460.437169759493));
#1280=CARTESIAN_POINT('',(79.3958635114195,-3.63555059126269,-462.864312035693));
#1281=CARTESIAN_POINT('',(77.824048751259,-3.63555059126269,-463.137254804425));
#1282=CARTESIAN_POINT('',(79.0275000995126,-8.72464331222275,-460.742991692133));
#1283=CARTESIAN_POINT('Origin',(79.0275000995126,-5.72464331222275,-460.742991692133));
#1284=CARTESIAN_POINT('',(77.4556853393521,-8.72464331222275,-461.015934460865));
#1285=CARTESIAN_POINT('Ctrl Pts',(81.1570218302089,-3.63555059126269,-462.558490103052));
#1286=CARTESIAN_POINT('Ctrl Pts',(82.5459696580924,-3.74159539731933,-462.421735591037));
#1287=CARTESIAN_POINT('Ctrl Pts',(83.9411404160381,-3.84811531799028,-462.304773809493));
#1288=CARTESIAN_POINT('Ctrl Pts',(85.3395565879179,-3.95488302283592,-462.201771769359));
#1289=CARTESIAN_POINT('Ctrl Pts',(81.2367130455135,-4.11560535457032,-463.017413521514));
#1290=CARTESIAN_POINT('Ctrl Pts',(82.6120704596384,-4.23484171810456,-462.849096306766));
#1291=CARTESIAN_POINT('Ctrl Pts',(83.9972268176416,-4.3496334319875,-462.701796080427));
#1292=CARTESIAN_POINT('Ctrl Pts',(85.387362812344,-4.46283549442785,-462.569782564282));
#1293=CARTESIAN_POINT('Ctrl Pts',(81.3387333232766,-5.39892620306624,-463.604924885779));
#1294=CARTESIAN_POINT('Ctrl Pts',(82.6923832915831,-5.51288880047409,-463.371228308976));
#1295=CARTESIAN_POINT('Ctrl Pts',(84.0622838534881,-5.61893855859825,-463.164327968356));
#1296=CARTESIAN_POINT('Ctrl Pts',(85.4402535367134,-5.71970190354882,-462.976933678031));
#1297=CARTESIAN_POINT('Ctrl Pts',(81.2686919731627,-7.11544724760167,-463.201572826143));
#1298=CARTESIAN_POINT('Ctrl Pts',(82.6225781551002,-7.17802882007603,-462.928419938598));
#1299=CARTESIAN_POINT('Ctrl Pts',(83.9943246392303,-7.23526949415354,-462.688571087034));
#1300=CARTESIAN_POINT('Ctrl Pts',(85.3746885671342,-7.28889472894531,-462.472216627823));
#1301=CARTESIAN_POINT('Ctrl Pts',(81.073730170671,-8.37390142583445,-462.078832552614));
#1302=CARTESIAN_POINT('Ctrl Pts',(82.4473809664354,-8.38921152899631,-461.805246806152));
#1303=CARTESIAN_POINT('Ctrl Pts',(83.8349605088511,-8.40298944849527,-461.567134965193));
#1304=CARTESIAN_POINT('Ctrl Pts',(85.2295172390842,-8.41578116522049,-461.354692362373));
#1305=CARTESIAN_POINT('Ctrl Pts',(80.9030974010791,-8.72464331222278,-461.096197595631));
#1306=CARTESIAN_POINT('Ctrl Pts',(82.2969458663635,-8.72428007373865,-460.839543263125));
#1307=CARTESIAN_POINT('Ctrl Pts',(83.7004773257411,-8.72492838610379,-460.619252321029));
#1308=CARTESIAN_POINT('Ctrl Pts',(85.1085385735581,-8.72464331222271,-460.423402443469));
#1309=CARTESIAN_POINT('Ctrl Pts',(80.7886584183019,-8.72464331222278,-460.437169759493));
#1310=CARTESIAN_POINT('Ctrl Pts',(82.1963048066569,-8.72464331222278,-460.192734529355));
#1311=CARTESIAN_POINT('Ctrl Pts',(83.6102579006001,-8.72464331222271,-459.983676856831));
#1312=CARTESIAN_POINT('Ctrl Pts',(85.0275000995126,-8.72464331222271,-459.799570848089));
#1313=CARTESIAN_POINT('',(85.0275001029211,-3.93105781615471,-462.22499981049));
#1314=CARTESIAN_POINT('',(85.0275000995126,-8.72464331222275,-459.799570848089));
#1315=CARTESIAN_POINT('Ctrl Pts',(85.0275000995126,-8.72464331222271,-459.799570848089));
#1316=CARTESIAN_POINT('Ctrl Pts',(85.0275000995126,-8.72464331222271,-459.900696342697));
#1317=CARTESIAN_POINT('Ctrl Pts',(85.0274895550412,-8.71941644908454,-460.001513613013));
#1318=CARTESIAN_POINT('Ctrl Pts',(85.0274746283887,-8.70917923153727,-460.101687772541));
#1319=CARTESIAN_POINT('Ctrl Pts',(85.0274594879973,-8.69879542437739,-460.203296354184));
#1320=CARTESIAN_POINT('Ctrl Pts',(85.0274399445168,-8.68325653748154,-460.304244072901));
#1321=CARTESIAN_POINT('Ctrl Pts',(85.0274215579009,-8.66273385302071,-460.404181975665));
#1322=CARTESIAN_POINT('Ctrl Pts',(85.0274031061744,-8.64213849377221,-460.504473777836));
#1323=CARTESIAN_POINT('Ctrl Pts',(85.0273859275201,-8.61652368441593,-460.603749426439));
#1324=CARTESIAN_POINT('Ctrl Pts',(85.0273731585431,-8.58601181145736,-460.701644492397));
#1325=CARTESIAN_POINT('Ctrl Pts',(85.0273618332675,-8.55894970837371,-460.788471229319));
#1326=CARTESIAN_POINT('Ctrl Pts',(85.0273539918483,-8.5280344478656,-460.87421213889));
#1327=CARTESIAN_POINT('Ctrl Pts',(85.0273491605596,-8.49332097016998,-460.958597317824));
#1328=CARTESIAN_POINT('Ctrl Pts',(85.0273437383079,-8.45436134043899,-461.053304490493));
#1329=CARTESIAN_POINT('Ctrl Pts',(85.0273432816011,-8.41080361441169,-461.145853765664));
#1330=CARTESIAN_POINT('Ctrl Pts',(85.0273477749806,-8.36281284094058,-461.235902183702));
#1331=CARTESIAN_POINT('Ctrl Pts',(85.0273522525644,-8.31499077138533,-461.325634050877));
#1332=CARTESIAN_POINT('Ctrl Pts',(85.0273617440152,-8.26276640839623,-461.41288340302));
#1333=CARTESIAN_POINT('Ctrl Pts',(85.0273729616628,-8.20625593823586,-461.497290951058));
#1334=CARTESIAN_POINT('Ctrl Pts',(85.0273768499862,-8.18666796450259,-461.526548765215));
#1335=CARTESIAN_POINT('Ctrl Pts',(85.0273809099769,-8.16656462634204,-461.555464907783));
#1336=CARTESIAN_POINT('Ctrl Pts',(85.0273848793227,-8.14594955218471,-461.58402358738));
#1337=CARTESIAN_POINT('Ctrl Pts',(85.0273962698428,-8.08679209249503,-461.665976187895));
#1338=CARTESIAN_POINT('Ctrl Pts',(85.0274073211647,-8.02342301917924,-461.744988035682));
#1339=CARTESIAN_POINT('Ctrl Pts',(85.0274177499804,-7.9560976290635,-461.820733690801));
#1340=CARTESIAN_POINT('Ctrl Pts',(85.0274233722532,-7.91980187717161,-461.861568886859));
#1341=CARTESIAN_POINT('Ctrl Pts',(85.0274287204282,-7.88235567957007,-461.90145415028));
#1342=CARTESIAN_POINT('Ctrl Pts',(85.027433019492,-7.84379550405719,-461.94033330199));
#1343=CARTESIAN_POINT('Ctrl Pts',(85.0274409940984,-7.7722677860385,-462.01245270921));
#1344=CARTESIAN_POINT('Ctrl Pts',(85.0274472120689,-7.69726094239145,-462.08075747319));
#1345=CARTESIAN_POINT('Ctrl Pts',(85.0274445714938,-7.61908424864355,-462.14497090197));
#1346=CARTESIAN_POINT('Ctrl Pts',(85.0274429802073,-7.57197272307308,-462.183667762209));
#1347=CARTESIAN_POINT('Ctrl Pts',(85.0274380970653,-7.52370918668305,-462.220878236634));
#1348=CARTESIAN_POINT('Ctrl Pts',(85.0274275533903,-7.4743547646426,-462.256535464805));
#1349=CARTESIAN_POINT('Ctrl Pts',(85.0274099156904,-7.39179356250914,-462.316183688832));
#1350=CARTESIAN_POINT('Ctrl Pts',(85.0273767391098,-7.3061808650319,-462.3714879226));
#1351=CARTESIAN_POINT('Ctrl Pts',(85.0273437050804,-7.21789135386329,-462.422334397117));
#1352=CARTESIAN_POINT('Ctrl Pts',(85.0273106939067,-7.12966292878778,-462.473145691777));
#1353=CARTESIAN_POINT('Ctrl Pts',(85.0272778594092,-7.03876053307766,-462.519505695981));
#1354=CARTESIAN_POINT('Ctrl Pts',(85.0272550132823,-6.94553975405178,-462.561253060152));
#1355=CARTESIAN_POINT('Ctrl Pts',(85.0272494481953,-6.92283210858287,-462.571422298757));
#1356=CARTESIAN_POINT('Ctrl Pts',(85.0272444472408,-6.8999868481972,-462.581317606745));
#1357=CARTESIAN_POINT('Ctrl Pts',(85.0272400961015,-6.87700903724742,-462.590936189587));
#1358=CARTESIAN_POINT('Ctrl Pts',(85.0272222936186,-6.78299640029903,-462.630290170638));
#1359=CARTESIAN_POINT('Ctrl Pts',(85.027217165194,-6.68724927917472,-462.664813292985));
#1360=CARTESIAN_POINT('Ctrl Pts',(85.0272248418218,-6.59015775776431,-462.694432356046));
#1361=CARTESIAN_POINT('Ctrl Pts',(85.0272325164539,-6.49309147719104,-462.724043719052));
#1362=CARTESIAN_POINT('Ctrl Pts',(85.0272530238247,-6.39468063695386,-462.748753854892));
#1363=CARTESIAN_POINT('Ctrl Pts',(85.0272811249363,-6.2952943545192,-462.768442188947));
#1364=CARTESIAN_POINT('Ctrl Pts',(85.0273086601365,-6.19790955283756,-462.787734031446));
#1365=CARTESIAN_POINT('Ctrl Pts',(85.0273435003713,-6.09958738624634,-462.802204413812));
#1366=CARTESIAN_POINT('Ctrl Pts',(85.0273752319677,-6.0006677004915,-462.811691664287));
#1367=CARTESIAN_POINT('Ctrl Pts',(85.0274021239467,-5.91683497786702,-462.81973194496));
#1368=CARTESIAN_POINT('Ctrl Pts',(85.0274267024103,-5.83257272807248,-462.824192497926));
#1369=CARTESIAN_POINT('Ctrl Pts',(85.02743931424,-5.74808988989177,-462.824945784285));
#1370=CARTESIAN_POINT('Ctrl Pts',(85.0274420673564,-5.72964759415773,-462.825110223953));
#1371=CARTESIAN_POINT('Ctrl Pts',(85.027444225613,-5.71121085686292,-462.825097751828));
#1372=CARTESIAN_POINT('Ctrl Pts',(85.0274456502127,-5.69278187951062,-462.824907792979));
#1373=CARTESIAN_POINT('Ctrl Pts',(85.0274533930134,-5.59261907206334,-462.823875353078));
#1374=CARTESIAN_POINT('Ctrl Pts',(85.0274399475203,-5.49268598775109,-462.817604243365));
#1375=CARTESIAN_POINT('Ctrl Pts',(85.0274217075159,-5.39334223747161,-462.806287442081));
#1376=CARTESIAN_POINT('Ctrl Pts',(85.0274029010945,-5.29091351038627,-462.794619213864));
#1377=CARTESIAN_POINT('Ctrl Pts',(85.0273790002345,-5.1891103593919,-462.777587074078));
#1378=CARTESIAN_POINT('Ctrl Pts',(85.027361580062,-5.08832832049115,-462.755345895096));
#1379=CARTESIAN_POINT('Ctrl Pts',(85.0273441598894,-4.9875462815904,-462.733104716114));
#1380=CARTESIAN_POINT('Ctrl Pts',(85.027333190114,-4.88778438676273,-462.70565424026));
#1381=CARTESIAN_POINT('Ctrl Pts',(85.0273342096773,-4.78945390970492,-462.673095801612));
#1382=CARTESIAN_POINT('Ctrl Pts',(85.0273352055801,-4.6934053419701,-462.641292931399));
#1383=CARTESIAN_POINT('Ctrl Pts',(85.0273470356977,-4.59913632259764,-462.604753317443));
#1384=CARTESIAN_POINT('Ctrl Pts',(85.0273665077872,-4.50700589864329,-462.563646217251));
#1385=CARTESIAN_POINT('Ctrl Pts',(85.0273859487337,-4.41502282535216,-462.522604862534));
#1386=CARTESIAN_POINT('Ctrl Pts',(85.0274129781698,-4.32517067169355,-462.477010357299));
#1387=CARTESIAN_POINT('Ctrl Pts',(85.0274385074504,-4.23782079595931,-462.426981709533));
#1388=CARTESIAN_POINT('Ctrl Pts',(85.0274635926737,-4.15199028735792,-462.377823262009));
#1389=CARTESIAN_POINT('Ctrl Pts',(85.0274871891444,-4.06857504016545,-462.324383240526));
#1390=CARTESIAN_POINT('Ctrl Pts',(85.0274954984209,-3.98795241051519,-462.26673146552));
#1391=CARTESIAN_POINT('Ctrl Pts',(85.0274974694077,-3.96882846651311,-462.253056281249));
#1392=CARTESIAN_POINT('Ctrl Pts',(85.027498558481,-3.94986178974444,-462.239143940236));
#1393=CARTESIAN_POINT('Ctrl Pts',(85.0274985414508,-3.93105769667774,-462.224995041708));
#1394=CARTESIAN_POINT('Ctrl Pts',(85.0274994611815,-3.93105776689828,-462.224994972552));
#1395=CARTESIAN_POINT('Ctrl Pts',(83.7335829269441,-3.83226850701962,-462.322286478012));
#1396=CARTESIAN_POINT('Ctrl Pts',(82.4426366569007,-3.73370602390253,-462.43190966228));
#1397=CARTESIAN_POINT('Ctrl Pts',(81.1570218302089,-3.63555059126269,-462.558490103052));
#1398=CARTESIAN_POINT('Ctrl Pts',(80.7886584183019,-8.72464331222278,-460.437169759493));
#1399=CARTESIAN_POINT('Ctrl Pts',(82.1963048066569,-8.72464331222278,-460.192734529355));
#1400=CARTESIAN_POINT('Ctrl Pts',(83.6102579006001,-8.72464331222271,-459.983676856831));
#1401=CARTESIAN_POINT('Ctrl Pts',(85.0275000995126,-8.72464331222271,-459.799570848089));
#1402=CARTESIAN_POINT('Origin',(77.4556853393521,-5.72464331222275,-461.015934460865));
#1403=CARTESIAN_POINT('',(79.0275000995126,-5.32551248329503,-463.760817754337));
#1404=CARTESIAN_POINT('Origin',(79.0275000995126,-5.72464331222275,-460.742991692133));
#1405=CARTESIAN_POINT('',(79.325485977447,-3.63555059126269,-462.876532966216));
#1406=CARTESIAN_POINT('',(77.824048751259,-3.63555059126269,-463.137254804425));
#1407=CARTESIAN_POINT('Origin',(78.9571225655401,-5.72464331222275,-460.755212622656));
#1408=CARTESIAN_POINT('Origin',(86.4794730099501,-9.13343786119635,-467.048618163587));
#1409=CARTESIAN_POINT('',(79.3807135410554,-3.32233951382883,-462.558490103052));
#1410=CARTESIAN_POINT('',(87.259175565153,-4.71152493516428,-462.558490103052));
#1411=CARTESIAN_POINT('',(78.6010109858524,-7.7442524398609,-467.048618163587));
#1412=CARTESIAN_POINT('Origin',(93.9492368989448,-17.7246433122228,-464.622658748571));
#1413=CARTESIAN_POINT('',(79.0275000995126,-14.7246433122228,-462.031526345724));
#1414=CARTESIAN_POINT('',(79.0275000995126,-19.8137360331828,-464.216812324481));
#1415=CARTESIAN_POINT('Origin',(79.0275000995126,-17.7246433122228,-462.031526345724));
#1416=CARTESIAN_POINT('',(84.5962482802175,-19.8137360331828,-465.183815297946));
#1417=CARTESIAN_POINT('',(93.5808734870379,-19.8137360331828,-466.743979092131));
#1418=CARTESIAN_POINT('',(85.0275000995126,-17.3679854307379,-466.096715374787));
#1419=CARTESIAN_POINT('Origin',(84.9646116921245,-17.7246433122228,-463.062494954387));
#1420=CARTESIAN_POINT('',(85.0275000995126,-14.7246433122228,-463.073415411726));
#1421=CARTESIAN_POINT('Origin',(85.0275000995126,-17.7246433122228,-463.073415411726));
#1422=CARTESIAN_POINT('',(93.9492368989448,-14.7246433122228,-464.622658748571));
#1423=CARTESIAN_POINT('Origin',(79.0275000995126,-14.7246433122228,-550.55351618638));
#1424=CARTESIAN_POINT('',(85.0275000995126,-14.7246433122228,-403.94170977484));
#1425=CARTESIAN_POINT('',(85.0275000995126,-14.7246433122228,-550.55351618638));
#1426=CARTESIAN_POINT('',(79.0275000995126,-14.7246433122228,-403.94170977484));
#1427=CARTESIAN_POINT('',(79.0275000995126,-14.7246433122228,-403.94170977484));
#1428=CARTESIAN_POINT('',(79.0275000995126,-14.7246433122228,-550.55351618638));
#1429=CARTESIAN_POINT('Origin',(85.6997704547471,-13.5553507872285,-462.558490103052));
#1430=CARTESIAN_POINT('',(85.0275000995126,-17.3679854307379,-467.59181600593));
#1431=CARTESIAN_POINT('',(85.0275000995126,-8.87741586182842,-467.048618163587));
#1432=CARTESIAN_POINT('Origin',(85.0275000995126,-13.4368113852702,-462.558490103052));
#1433=CARTESIAN_POINT('',(86.4794730099501,-9.13343786119635,-467.048618163587));
#1434=CARTESIAN_POINT('Origin',(85.6997704547471,-13.5553507872285,-462.558490103052));
#1435=CARTESIAN_POINT('',(86.4794730099501,-9.13343786119635,-467.048618163587));
#1436=CARTESIAN_POINT('Origin',(85.6997704547471,-13.5553507872285,-476.926899896763));
#1437=CARTESIAN_POINT('',(83.2047222780975,-27.7054721505313,-467.946643775694));
#1438=CARTESIAN_POINT('',(84.1403653443411,-22.3991766392928,-462.558490103052));
#1439=CARTESIAN_POINT('Origin',(83.6725438112193,-25.0523243949121,-465.252566939373));
#1440=CARTESIAN_POINT('',(83.9844248333005,-23.2835592244992,-472.436771836228));
#1441=CARTESIAN_POINT('',(83.9844248333005,-23.2835592244992,-472.436771836228));
#1442=CARTESIAN_POINT('',(83.9844248333005,-23.2835592244992,-481.417027957297));
#1443=CARTESIAN_POINT('Origin',(83.2047222780975,-27.7054721505313,-476.926899896763));
#1444=CARTESIAN_POINT('',(83.2047222780976,-27.7054721505313,-485.907156017832));
#1445=CARTESIAN_POINT('',(83.2047222780976,-27.7054721505313,-485.907156017832));
#1446=CARTESIAN_POINT('',(84.1403653443411,-22.3991766392928,-491.295309690474));
#1447=CARTESIAN_POINT('Origin',(83.6725438112194,-25.052324394912,-488.601232854153));
#1448=CARTESIAN_POINT('',(84.9200678995441,-17.9772637132606,-486.805181629939));
#1449=CARTESIAN_POINT('',(85.0275000995126,-17.3679854307379,-513.740208041572));
#1450=CARTESIAN_POINT('',(87.4151160761936,-3.8271423499578,-481.417027957297));
#1451=CARTESIAN_POINT('',(87.4151160761936,-3.8271423499578,-481.417027957297));
#1452=CARTESIAN_POINT('',(87.4151160761936,-3.82714234995783,-472.436771836228));
#1453=CARTESIAN_POINT('Origin',(88.1948186313966,0.594770576074313,-476.926899896763));
#1454=CARTESIAN_POINT('',(88.1948186313966,0.594770576074291,-467.946643775694));
#1455=CARTESIAN_POINT('',(88.1948186313966,0.594770576074291,-467.946643775694));
#1456=CARTESIAN_POINT('',(87.259175565153,-4.71152493516428,-462.558490103052));
#1457=CARTESIAN_POINT('Origin',(87.7269970982748,-2.05837717954499,-465.252566939373));
#1458=CARTESIAN_POINT('',(86.4794730099501,-9.13343786119635,-467.048618163587));
#1459=CARTESIAN_POINT('',(85.0275000995126,-17.3679854307379,-513.740208041572));
#1460=CARTESIAN_POINT('',(84.1403653443411,-22.3991766392928,-462.558490103052));
#1461=CARTESIAN_POINT('',(87.7269970982748,-2.05837717954499,-466.840066939373));
#1462=CARTESIAN_POINT('Origin',(87.7269970982748,-2.05837717954499,-465.252566939373));
#1463=CARTESIAN_POINT('',(87.7269970982749,-2.05837717954492,-490.188732854153));
#1464=CARTESIAN_POINT('Origin',(87.7269970982749,-2.05837717954492,-488.601232854153));
#1465=CARTESIAN_POINT('',(83.6725438112194,-25.052324394912,-490.188732854153));
#1466=CARTESIAN_POINT('Origin',(83.6725438112194,-25.052324394912,-488.601232854153));
#1467=CARTESIAN_POINT('',(83.6725438112193,-25.0523243949121,-466.840066939373));
#1468=CARTESIAN_POINT('Origin',(83.6725438112193,-25.0523243949121,-465.252566939373));
#1469=CARTESIAN_POINT('Origin',(83.6725438112193,-25.0523243949121,-465.252566939373));
#1470=CARTESIAN_POINT('',(79.0275000995126,-26.968915176033,-467.946643775694));
#1471=CARTESIAN_POINT('',(79.0275000995126,-21.4976405479029,-462.558490103052));
#1472=CARTESIAN_POINT('Origin',(79.0275000995126,-24.233277861968,-465.252566939373));
#1473=CARTESIAN_POINT('',(83.2047222780975,-27.7054721505313,-467.946643775694));
#1474=CARTESIAN_POINT('',(84.1403653443411,-22.3991766392928,-462.558490103052));
#1475=CARTESIAN_POINT('Origin',(84.1403653443411,-22.3991766392928,-462.558490103052));
#1476=CARTESIAN_POINT('',(79.0275000995126,-15.9425199205253,-468.029215965812));
#1477=CARTESIAN_POINT('Origin',(87.7269970982748,-2.05837717954499,-465.252566939373));
#1478=CARTESIAN_POINT('',(85.0275000995126,-4.31802033838674,-462.558490103052));
#1479=CARTESIAN_POINT('Origin',(85.0275000995126,-1.58238302432167,-465.252566939373));
#1480=CARTESIAN_POINT('',(87.259175565153,-4.71152493516428,-462.558490103052));
#1481=CARTESIAN_POINT('',(80.316356607299,1.98395599740974,-467.946643775694));
#1482=CARTESIAN_POINT('',(88.1948186313966,0.594770576074291,-467.946643775694));
#1483=CARTESIAN_POINT('Origin',(79.8485350741772,-0.669191758209536,-465.252566939373));
#1484=CARTESIAN_POINT('Origin',(88.1948186313966,0.594770576074291,-467.946643775694));
#1485=CARTESIAN_POINT('',(79.536654052096,-2.43795692862238,-472.436771836228));
#1486=CARTESIAN_POINT('',(87.4151160761936,-3.82714234995783,-472.436771836228));
#1487=CARTESIAN_POINT('',(80.316356607299,1.98395599740974,-467.946643775694));
#1488=CARTESIAN_POINT('Origin',(88.1948186313966,0.594770576074313,-476.926899896763));
#1489=CARTESIAN_POINT('',(79.536654052096,-2.43795692862235,-481.417027957297));
#1490=CARTESIAN_POINT('',(87.4151160761936,-3.8271423499578,-481.417027957297));
#1491=CARTESIAN_POINT('Origin',(80.3163566072989,1.98395599740976,-476.926899896763));
#1492=CARTESIAN_POINT('Origin',(87.4151160761936,-3.8271423499578,-481.417027957297));
#1493=CARTESIAN_POINT('',(79.536654052096,-2.43795692862235,-481.417027957297));
#1494=CARTESIAN_POINT('Origin',(83.2047222780976,-27.7054721505313,-485.907156017832));
#1495=CARTESIAN_POINT('',(79.0275000995126,-26.968915176033,-485.907156017832));
#1496=CARTESIAN_POINT('',(79.0275000995126,-22.4095196525913,-481.417027957297));
#1497=CARTESIAN_POINT('',(79.0275000995126,-21.330042270104,-480.353950261823));
#1498=CARTESIAN_POINT('',(83.2047222780976,-27.7054721505313,-485.907156017832));
#1499=CARTESIAN_POINT('',(83.9844248333005,-23.2835592244992,-481.417027957297));
#1500=CARTESIAN_POINT('Origin',(83.2047222780975,-27.7054721505313,-476.926899896763));
#1501=CARTESIAN_POINT('',(79.0275000995126,-22.4095196525912,-472.436771836228));
#1502=CARTESIAN_POINT('Origin',(79.0275000995126,-26.9689151760329,-476.926899896763));
#1503=CARTESIAN_POINT('',(83.9844248333005,-23.2835592244992,-472.436771836228));
#1504=CARTESIAN_POINT('Origin',(83.9844248333005,-23.2835592244992,-472.436771836228));
#1505=CARTESIAN_POINT('',(79.0275000995126,-19.0852412911128,-475.710546939783));
#1506=CARTESIAN_POINT('Origin',(87.7269970982748,-2.05837717954499,-465.252566939373));
#1507=CARTESIAN_POINT('',(79.8485350741772,-0.669191758209538,-466.840066939373));
#1508=CARTESIAN_POINT('Origin',(79.8485350741772,-0.669191758209536,-465.252566939373));
#1509=CARTESIAN_POINT('',(87.7269970982748,-2.05837717954499,-466.840066939373));
#1510=CARTESIAN_POINT('Origin',(87.7269970982749,-2.05837717954492,-488.601232854153));
#1511=CARTESIAN_POINT('',(79.8485350741772,-0.669191758209469,-490.188732854153));
#1512=CARTESIAN_POINT('Origin',(79.8485350741772,-0.669191758209468,-488.601232854153));
#1513=CARTESIAN_POINT('',(87.7269970982749,-2.05837717954492,-490.188732854153));
#1514=CARTESIAN_POINT('Origin',(83.6725438112194,-25.052324394912,-488.601232854153));
#1515=CARTESIAN_POINT('',(79.0275000995126,-24.2332778619679,-490.188732854153));
#1516=CARTESIAN_POINT('Origin',(79.0275000995126,-24.2332778619679,-488.601232854153));
#1517=CARTESIAN_POINT('',(83.6725438112194,-25.052324394912,-490.188732854153));
#1518=CARTESIAN_POINT('Origin',(83.6725438112193,-25.0523243949121,-465.252566939373));
#1519=CARTESIAN_POINT('',(79.0275000995126,-24.233277861968,-466.840066939373));
#1520=CARTESIAN_POINT('Origin',(79.0275000995126,-24.233277861968,-465.252566939373));
#1521=CARTESIAN_POINT('',(83.6725438112193,-25.0523243949121,-466.840066939373));
#1522=CARTESIAN_POINT('Origin',(86.4794730099501,-9.13343786119635,-467.048618163587));
#1523=CARTESIAN_POINT('',(85.0275000995126,-31.3003632692027,-489.130910615754));
#1524=CARTESIAN_POINT('Origin',(77.8213084306494,-12.166165365893,-476.926899896763));
#1525=CARTESIAN_POINT('',(79.0275000995126,-5.32551248329504,-513.740208041572));
#1526=CARTESIAN_POINT('Origin',(84.9200678995441,-17.9772637132606,-486.805181629939));
#1527=CARTESIAN_POINT('',(79.0275000995126,-21.4976405479029,-491.295309690474));
#1528=CARTESIAN_POINT('',(84.1403653443411,-22.3991766392928,-491.295309690474));
#1529=CARTESIAN_POINT('',(79.0275000995126,-13.6977189415342,-483.613886419634));
#1530=CARTESIAN_POINT('Origin',(83.6725438112194,-25.052324394912,-488.601232854153));
#1531=CARTESIAN_POINT('Origin',(79.0275000995126,-24.2332778619679,-488.601232854153));
#1532=CARTESIAN_POINT('Origin',(85.0275000995126,-14.7246433122228,-550.55351618638));
#1533=CARTESIAN_POINT('',(85.0275000995126,-14.7246433122228,-550.55351618638));
#1534=CARTESIAN_POINT('Origin',(85.0275000995126,-8.72464331222275,-550.55351618638));
#1535=CARTESIAN_POINT('',(79.0275000995126,-8.72464331222277,-403.94170977484));
#1536=CARTESIAN_POINT('',(79.0275000995126,-8.72464331222275,-550.55351618638));
#1537=CARTESIAN_POINT('',(85.0275000995126,-8.72464331222277,-403.94170977484));
#1538=CARTESIAN_POINT('',(85.0275000995126,-8.72464331222277,-403.94170977484));
#1539=CARTESIAN_POINT('',(85.0275000995126,-8.72464331222275,-550.55351618638));
#1540=CARTESIAN_POINT('Origin',(82.0275000995126,-11.7246433122228,-403.94170977484));
#1541=CARTESIAN_POINT('',(79.0275000995126,-8.72464331222277,-403.94170977484));
#1542=CARTESIAN_POINT('',(85.0275000995126,-14.7246433122228,-403.94170977484));
#1543=CARTESIAN_POINT('Origin',(79.0275000995126,-8.72464331222275,-550.55351618638));
#1544=CARTESIAN_POINT('',(79.0275000995126,-8.72464331222275,-550.55351618638));
#1545=CARTESIAN_POINT('Origin',(85.0275000995126,-14.7246433122228,-550.55351618638));
#1546=CARTESIAN_POINT('Origin',(82.0275000995126,-11.7246433122228,-550.55351618638));
#1547=UNCERTAINTY_MEASURE_WITH_UNIT(LENGTH_MEASURE(0.01),#1551,
'DISTANCE_ACCURACY_VALUE',
'Maximum model space distance between geometric entities at asserted c
onnectivities');
#1548=UNCERTAINTY_MEASURE_WITH_UNIT(LENGTH_MEASURE(0.01),#1551,
'DISTANCE_ACCURACY_VALUE',
'Maximum model space distance between geometric entities at asserted c
onnectivities');
#1549=(
GEOMETRIC_REPRESENTATION_CONTEXT(3)
GLOBAL_UNCERTAINTY_ASSIGNED_CONTEXT((#1547))
GLOBAL_UNIT_ASSIGNED_CONTEXT((#1551,#1552,#1553))
REPRESENTATION_CONTEXT('','3D')
);
#1550=(
GEOMETRIC_REPRESENTATION_CONTEXT(3)
GLOBAL_UNCERTAINTY_ASSIGNED_CONTEXT((#1548))
GLOBAL_UNIT_ASSIGNED_CONTEXT((#1551,#1552,#1553))
REPRESENTATION_CONTEXT('','3D')
);
#1551=(
LENGTH_UNIT()
NAMED_UNIT(*)
SI_UNIT(.MILLI.,.METRE.)
);
#1552=(
NAMED_UNIT(*)
PLANE_ANGLE_UNIT()
SI_UNIT($,.RADIAN.)
);
#1553=(
NAMED_UNIT(*)
SI_UNIT($,.STERADIAN.)
SOLID_ANGLE_UNIT()
);
#1554=SHAPE_DEFINITION_REPRESENTATION(#1555,#1556);
#1555=PRODUCT_DEFINITION_SHAPE('',$,#1558);
#1556=SHAPE_REPRESENTATION('',(#789),#1549);
#1557=PRODUCT_DEFINITION_CONTEXT('part definition',#1562,'design');
#1558=PRODUCT_DEFINITION('EGN 1007 - boat','EGN 1007 - boat v9',#1559,#1557);
#1559=PRODUCT_DEFINITION_FORMATION('',$,#1564);
#1560=PRODUCT_RELATED_PRODUCT_CATEGORY('EGN 1007 - boat v9',
'EGN 1007 - boat v9',(#1564));
#1561=APPLICATION_PROTOCOL_DEFINITION('international standard',
'automotive_design',2009,#1562);
#1562=APPLICATION_CONTEXT(
'Core Data for Automotive Mechanical Design Process');
#1563=PRODUCT_CONTEXT('part definition',#1562,'mechanical');
#1564=PRODUCT('EGN 1007 - boat','EGN 1007 - boat v9',$,(#1563));
#1565=PRESENTATION_STYLE_ASSIGNMENT((#1573));
#1566=PRESENTATION_STYLE_ASSIGNMENT((#1574));
#1567=PRESENTATION_STYLE_ASSIGNMENT((#1575));
#1568=PRESENTATION_STYLE_ASSIGNMENT((#1576));
#1569=PRESENTATION_STYLE_ASSIGNMENT((#1577));
#1570=PRESENTATION_STYLE_ASSIGNMENT((#1578));
#1571=PRESENTATION_STYLE_ASSIGNMENT((#1579));
#1572=PRESENTATION_STYLE_ASSIGNMENT((#1580));
#1573=SURFACE_STYLE_USAGE(.BOTH.,#1581);
#1574=SURFACE_STYLE_USAGE(.BOTH.,#1582);
#1575=SURFACE_STYLE_USAGE(.BOTH.,#1583);
#1576=SURFACE_STYLE_USAGE(.BOTH.,#1584);
#1577=SURFACE_STYLE_USAGE(.BOTH.,#1585);
#1578=SURFACE_STYLE_USAGE(.BOTH.,#1586);
#1579=SURFACE_STYLE_USAGE(.BOTH.,#1587);
#1580=SURFACE_STYLE_USAGE(.BOTH.,#1588);
#1581=SURFACE_SIDE_STYLE('',(#1589));
#1582=SURFACE_SIDE_STYLE('',(#1590));
#1583=SURFACE_SIDE_STYLE('',(#1591));
#1584=SURFACE_SIDE_STYLE('',(#1592));
#1585=SURFACE_SIDE_STYLE('',(#1593));
#1586=SURFACE_SIDE_STYLE('',(#1594));
#1587=SURFACE_SIDE_STYLE('',(#1595));
#1588=SURFACE_SIDE_STYLE('',(#1596));
#1589=SURFACE_STYLE_FILL_AREA(#1597);
#1590=SURFACE_STYLE_FILL_AREA(#1598);
#1591=SURFACE_STYLE_FILL_AREA(#1599);
#1592=SURFACE_STYLE_FILL_AREA(#1600);
#1593=SURFACE_STYLE_FILL_AREA(#1601);
#1594=SURFACE_STYLE_FILL_AREA(#1602);
#1595=SURFACE_STYLE_FILL_AREA(#1603);
#1596=SURFACE_STYLE_FILL_AREA(#1604);
#1597=FILL_AREA_STYLE('Steel - Satin',(#1605));
#1598=FILL_AREA_STYLE('Opaque(202,209,238)',(#1606));
#1599=FILL_AREA_STYLE('Opaque(63,63,63)',(#1607));
#1600=FILL_AREA_STYLE('Opaque(183,131,0)',(#1608));
#1601=FILL_AREA_STYLE('Opaque(255,231,143)',(#1609));
#1602=FILL_AREA_STYLE('Opaque(151,72,0)',(#1610));
#1603=FILL_AREA_STYLE('Opaque(255,150,23)',(#1611));
#1604=FILL_AREA_STYLE('Opaque(255,255,255)',(#1612));
#1605=FILL_AREA_STYLE_COLOUR('Steel - Satin',#1613);
#1606=FILL_AREA_STYLE_COLOUR('Opaque(202,209,238)',#1614);
#1607=FILL_AREA_STYLE_COLOUR('Opaque(63,63,63)',#1615);
#1608=FILL_AREA_STYLE_COLOUR('Opaque(183,131,0)',#1616);
#1609=FILL_AREA_STYLE_COLOUR('Opaque(255,231,143)',#1617);
#1610=FILL_AREA_STYLE_COLOUR('Opaque(151,72,0)',#1618);
#1611=FILL_AREA_STYLE_COLOUR('Opaque(255,150,23)',#1619);
#1612=FILL_AREA_STYLE_COLOUR('Opaque(255,255,255)',#1620);
#1613=COLOUR_RGB('Steel - Satin',0.627450980392157,0.627450980392157,0.627450980392157);
#1614=COLOUR_RGB('Opaque(202,209,238)',0.792156862745098,0.819607843137255,
0.933333333333333);
#1615=COLOUR_RGB('Opaque(63,63,63)',0.250980392156863,0.250980392156863,
0.250980392156863);
#1616=COLOUR_RGB('Opaque(183,131,0)',0.717647058823529,0.513725490196078,
0.);
#1617=COLOUR_RGB('Opaque(255,231,143)',1.,0.905882352941176,0.56078431372549);
#1618=COLOUR_RGB('Opaque(151,72,0)',0.592156862745098,0.282352941176471,
0.);
#1619=COLOUR_RGB('Opaque(255,150,23)',1.,0.588235294117647,0.0901960784313725);
#1620=COLOUR_RGB('Opaque(255,255,255)',1.,1.,1.);
ENDSEC;
END-ISO-10303-21;
